<svg width="366" height="366" viewBox="0 0 366 366" fill="none" xmlns="http://www.w3.org/2000/svg">
<rect width="366" height="366" fill="#111111"/>
<g clip-path="url(#clip0_2691_243)">
<path d="M80.9999 225.702C80.9999 217.789 83.7199 210.989 89.1599 205.302C94.8472 199.862 101.647 197.142 109.56 197.142C117.225 197.142 123.778 199.862 129.218 205.302C134.905 210.989 137.749 217.789 137.749 225.702C137.749 233.614 134.905 240.291 129.218 245.731C123.778 251.418 117.225 254.262 109.56 254.262C101.647 254.262 94.8472 251.418 89.1599 245.731C83.7199 240.291 80.9999 233.614 80.9999 225.702Z" fill="#EB4330"/>
<path d="M80.9999 146.898C80.9999 138.985 83.7199 132.185 89.1599 126.498C94.8472 121.058 101.647 118.338 109.56 118.338C117.225 118.338 123.778 121.058 129.218 126.498C134.905 132.185 137.749 138.985 137.749 146.898C137.749 154.811 134.905 161.487 129.218 166.927C123.778 172.614 117.225 175.458 109.56 175.458C101.647 175.458 94.8472 172.614 89.1599 166.927C83.7199 161.487 80.9999 154.811 80.9999 146.898Z" fill="#EB4330"/>
<g clip-path="url(#clip1_2691_243)">
<path d="M284.654 182.635C284.654 202.612 280.338 220.616 271.706 236.647C263.074 252.432 251.112 264.763 235.821 273.642C220.53 282.521 203.266 286.96 184.029 286.96C164.791 286.96 147.527 282.521 132.236 273.642C116.945 264.517 104.984 252.062 96.3514 236.277C87.7194 220.493 83.4033 202.612 83.4033 182.635C83.4033 162.658 87.7194 144.777 96.3514 128.993C104.984 112.962 116.945 100.507 132.236 91.6284C147.527 82.5031 164.791 77.9404 184.029 77.9404C203.266 77.9404 220.53 82.5031 235.821 91.6284C251.112 100.507 263.074 112.839 271.706 128.623C280.338 144.407 284.654 162.411 284.654 182.635ZM237.301 182.635C237.301 167.097 232.245 154.273 222.133 144.161C212.021 133.802 199.32 128.623 184.029 128.623C168.491 128.623 155.789 133.802 145.924 144.161C135.812 154.273 130.756 167.097 130.756 182.635C130.756 197.926 135.812 210.628 145.924 220.74C155.789 230.851 168.491 235.907 184.029 235.907C199.32 235.907 212.021 230.851 222.133 220.74C232.245 210.628 237.301 197.926 237.301 182.635Z" fill="#EB4330"/>
</g>
</g>
<defs>
<clipPath id="clip0_2691_243">
<rect width="209.105" height="203.766" fill="white" transform="translate(81 287) rotate(-90)"/>
</clipPath>
<clipPath id="clip1_2691_243">
<rect width="211.774" height="102.328" fill="white" transform="translate(182.438 289.669) rotate(-90)"/>
</clipPath>
</defs>
</svg>
