<svg version="1.1" id="Layer_1" xmlns="http://www.w3.org/2000/svg" xmlns:xlink="http://www.w3.org/1999/xlink" x="0px" y="0px"
	 width="100%" viewBox="0 0 192 192" enable-background="new 0 0 192 192" xml:space="preserve">
<path fill="#010101" opacity="1.000000" stroke="none" 
	d="
M133.000000,193.000000 
	C88.695221,193.000000 44.890434,193.000000 1.042827,193.000000 
	C1.042827,129.070267 1.042827,65.140488 1.042827,1.105357 
	C64.887924,1.105357 128.776077,1.105357 192.832123,1.105357 
	C192.832123,64.999634 192.832123,128.999786 192.832123,193.000000 
	C173.140778,193.000000 153.320389,193.000000 133.000000,193.000000 
M142.493591,54.091850 
	C144.465363,48.558239 146.437134,43.024628 148.555405,37.079895 
	C144.271133,37.079895 140.753418,37.339314 137.293411,37.003624 
	C134.121246,36.695858 132.978714,38.202282 132.056931,40.853191 
	C122.721939,67.699234 113.320160,94.522102 103.895683,121.336914 
	C101.913269,126.977341 99.761810,132.558365 97.688248,138.166779 
	C97.267319,138.112762 96.846390,138.058762 96.425468,138.004761 
	C84.565323,104.388069 72.705185,70.771378 60.883476,37.263618 
	C55.746738,37.263618 50.963673,37.263618 45.887817,37.263618 
	C46.157932,38.281960 46.302235,39.074329 46.575352,39.819485 
	C54.297077,60.887035 62.031460,81.949944 69.764496,103.013351 
	C75.435600,118.460442 81.151360,133.891342 86.760979,149.360718 
	C89.572372,157.113571 89.528557,156.632523 97.631294,157.316803 
	C103.496635,157.812134 105.511391,155.408966 107.318581,150.362961 
	C118.750557,118.442802 130.513748,86.641266 142.493591,54.091850 
z"/>
<path fill="#F9F9F9" opacity="1.000000" stroke="none" 
	d="
M142.330612,54.446217 
	C130.513748,86.641266 118.750557,118.442802 107.318581,150.362961 
	C105.511391,155.408966 103.496635,157.812134 97.631294,157.316803 
	C89.528557,156.632523 89.572372,157.113571 86.760979,149.360718 
	C81.151360,133.891342 75.435600,118.460442 69.764496,103.013351 
	C62.031460,81.949944 54.297077,60.887035 46.575352,39.819485 
	C46.302235,39.074329 46.157932,38.281960 45.887817,37.263618 
	C50.963673,37.263618 55.746738,37.263618 60.883476,37.263618 
	C72.705185,70.771378 84.565323,104.388069 96.425468,138.004761 
	C96.846390,138.058762 97.267319,138.112762 97.688248,138.166779 
	C99.761810,132.558365 101.913269,126.977341 103.895683,121.336914 
	C113.320160,94.522102 122.721939,67.699234 132.056931,40.853191 
	C132.978714,38.202282 134.121246,36.695858 137.293411,37.003624 
	C140.753418,37.339314 144.271133,37.079895 148.555405,37.079895 
	C146.437134,43.024628 144.465363,48.558239 142.330612,54.446217 
z"/>
</svg>