<svg width="4740" height="143" viewBox="0 0 4740 143" fill="none" xmlns="http://www.w3.org/2000/svg">
<rect y="0.157227" width="4739.58" height="142.188" fill="#FF0000"/>
<path d="M22.5053 114.503V29.5696H12.3133V114.503H22.5053ZM53.3126 114.503V44.1296L101.361 114.503H113.009V29.5696H102.817V99.9429L54.7686 29.5696H43.1206V114.503H53.3126ZM143.839 114.503V75.7976H187.883V66.4549H143.839V38.9123H191.523V29.5696H133.647V114.503H143.839ZM243.88 115.838C269.603 115.838 285.012 97.2736 285.012 71.7936C285.012 45.4643 268.389 28.2349 243.88 28.2349C218.4 28.2349 202.991 46.5563 202.991 71.7936C202.991 98.6083 219.613 115.838 243.88 115.838ZM243.88 106.495C225.195 106.495 213.425 93.0269 213.425 71.7936C213.425 50.8029 225.195 37.5776 243.88 37.5776C262.687 37.5776 274.577 50.8029 274.577 71.7936C274.577 93.0269 262.808 106.495 243.88 106.495ZM347.526 126.394C357.718 126.394 365.483 124.695 373.127 121.54V117.9C365.726 121.298 357.718 123.239 348.133 123.239C320.711 123.239 302.997 107.708 302.997 81.8643C302.997 55.2923 321.561 35.7576 348.133 35.7576C372.035 35.7576 388.658 51.4096 388.658 75.0696C388.658 89.7509 382.227 100.671 373.127 100.671C367.303 100.671 364.149 96.1816 364.998 89.0229L368.759 55.1709H365.969L363.906 67.1829C361.965 58.8109 355.655 53.4723 346.555 53.4723C332.723 53.4723 322.895 66.3336 322.895 82.1069C322.895 95.6963 330.782 103.583 341.945 103.583C351.287 103.583 357.839 97.8803 361.479 89.0229H362.207C361.115 98.2443 365.362 103.583 372.885 103.583C384.169 103.583 391.934 91.4496 391.934 74.8269C391.934 49.5896 373.977 32.6029 348.011 32.6029C319.498 32.6029 299.599 53.4723 299.599 81.8643C299.599 109.65 318.527 126.394 347.526 126.394ZM341.702 100.428C332.481 100.428 326.293 93.9976 326.293 81.9856C326.293 67.9109 334.543 56.6269 346.798 56.6269C357.597 56.6269 363.663 65.4843 362.207 78.1029C360.387 91.3283 352.743 100.428 341.702 100.428ZM447.326 115.838C473.049 115.838 488.458 97.2736 488.458 71.7936C488.458 45.4643 471.836 28.2349 447.326 28.2349C421.846 28.2349 406.437 46.5563 406.437 71.7936C406.437 98.6083 423.06 115.838 447.326 115.838ZM447.326 106.495C428.641 106.495 416.872 93.0269 416.872 71.7936C416.872 50.8029 428.641 37.5776 447.326 37.5776C466.133 37.5776 478.024 50.8029 478.024 71.7936C478.024 93.0269 466.254 106.495 447.326 106.495ZM515.422 114.503V79.4376H544.785C548.789 79.4376 551.701 81.3789 553.035 85.0189L563.955 114.503H574.875L563.106 83.1989C561.529 78.9523 558.374 76.0403 553.885 74.8269C564.198 71.5509 570.993 63.0576 570.993 52.9869C570.993 39.1549 559.951 29.5696 543.935 29.5696H505.23V114.503H515.422ZM515.422 38.9123H544.421C553.642 38.9123 560.679 44.0083 560.679 53.9576C560.679 63.0576 554.977 70.3376 544.421 70.3376H515.422V38.9123ZM629.158 114.503C644.567 114.503 655.244 105.039 655.244 91.3283C655.244 80.8936 647.964 72.8856 636.923 70.7016C646.872 67.5469 653.303 60.0243 653.303 50.9243C653.303 38.3056 642.99 29.5696 628.187 29.5696H589.239V114.503H629.158ZM599.31 38.9123H629.158C637.287 38.9123 642.99 44.2509 642.99 52.0163C642.99 60.6309 636.68 66.6976 627.58 66.6976H599.31V38.9123ZM599.31 75.7976H628.187C637.287 75.7976 644.688 80.7723 644.688 90.2363C644.688 99.0936 638.743 105.16 630.25 105.16H599.31V75.7976ZM710.168 77.9816V75.0696H668.065V77.9816H710.168ZM759.924 115.838C778.73 115.838 790.136 106.859 790.136 91.9349C790.136 75.9189 777.153 71.6723 766.354 68.2749L752.644 64.0283C745.364 61.7229 735.657 59.7816 735.657 50.4389C735.657 42.3096 743.18 37.4563 753.857 37.4563C767.325 37.4563 775.697 44.1296 776.546 56.1416H787.102C785.768 38.0629 773.756 28.2349 754.342 28.2349C736.749 28.2349 725.465 37.2136 725.465 50.9243C725.465 67.5469 742.573 71.1869 749.368 73.3709L764.049 77.9816C772.178 80.5296 779.701 83.8056 779.701 92.4203C779.701 101.278 772.906 106.616 759.924 106.616C745 106.616 734.686 99.7003 733.473 88.7803H722.796C723.888 104.796 738.569 115.838 759.924 115.838ZM815.793 114.503V80.8936H845.762C860.808 80.8936 872.941 71.6723 872.941 54.4429C872.941 40.8536 863.477 29.5696 845.762 29.5696H805.601V114.503H815.793ZM815.793 38.9123H846.248C855.226 38.9123 862.506 44.3723 862.506 54.4429C862.506 63.9069 856.804 71.5509 846.248 71.5509H815.793V38.9123ZM879.861 114.503L889.81 90.2363H929.122L939.071 114.503H949.627L914.562 29.5696H904.249L869.305 114.503H879.861ZM909.466 42.5523L925.239 81.0149H893.693L909.466 42.5523ZM996.421 115.838C1018.63 115.838 1032.7 103.947 1036.46 81.8643H1025.91C1022.63 97.8803 1012.32 106.495 996.421 106.495C977.372 106.495 965.603 93.5123 965.603 71.7936C965.603 50.8029 977.372 37.5776 996.421 37.5776C1011.83 37.5776 1022.75 46.6776 1025.91 62.2083H1036.46C1032.82 40.8536 1018.02 28.2349 996.421 28.2349C970.335 28.2349 954.925 46.5563 954.925 71.7936C954.925 97.5163 970.335 115.838 996.421 115.838ZM1112.33 114.503V105.16H1063.31V74.8269H1106.39V65.7269H1063.31V38.9123H1111.24V29.5696H1053.24V114.503H1112.33ZM1132 115.716C1136.37 115.716 1139.64 112.44 1139.64 108.072C1139.64 103.826 1136.37 100.55 1132 100.55C1127.63 100.55 1124.36 103.826 1124.36 108.072C1124.36 112.44 1127.63 115.716 1132 115.716ZM1189.68 115.838C1211.88 115.838 1225.96 103.947 1229.72 81.8643H1219.16C1215.89 97.8803 1205.57 106.495 1189.68 106.495C1170.63 106.495 1158.86 93.5123 1158.86 71.7936C1158.86 50.8029 1170.63 37.5776 1189.68 37.5776C1205.09 37.5776 1216.01 46.6776 1219.16 62.2083H1229.72C1226.08 40.8536 1211.28 28.2349 1189.68 28.2349C1163.59 28.2349 1148.18 46.5563 1148.18 71.7936C1148.18 97.5163 1163.59 115.838 1189.68 115.838ZM1283.51 115.838C1309.23 115.838 1324.64 97.2736 1324.64 71.7936C1324.64 45.4643 1308.02 28.2349 1283.51 28.2349C1258.03 28.2349 1242.62 46.5563 1242.62 71.7936C1242.62 98.6083 1259.24 115.838 1283.51 115.838ZM1283.51 106.495C1264.82 106.495 1253.05 93.0269 1253.05 71.7936C1253.05 50.8029 1264.82 37.5776 1283.51 37.5776C1302.31 37.5776 1314.2 50.8029 1314.2 71.7936C1314.2 93.0269 1302.44 106.495 1283.51 106.495ZM1351.6 114.503V47.5269L1379.15 114.503H1388.97L1416.64 47.2843V114.503H1426.83V29.5696H1413.97L1384.12 102.37L1354.15 29.5696H1341.41V114.503H1351.6ZM1542 119.599H1547.1C1547.95 114.382 1550.25 108.679 1554.14 102.491C1561.9 90.2363 1577.55 78.2243 1591.02 75.4336V70.3376C1584.35 68.8816 1577.8 65.8483 1571.49 61.3589C1558.63 52.2589 1549.16 38.6696 1547.1 26.4149H1542C1540.79 32.8456 1538 39.0336 1533.63 45.3429C1525.02 57.8403 1511.55 67.0616 1497.84 70.3376V75.4336C1504.75 76.8896 1511.79 80.2869 1518.71 85.5043C1532.78 96.0603 1540.18 109.164 1542 119.599ZM1672.24 114.503V29.5696H1662.04V114.503H1672.24ZM1703.04 114.503V44.1296L1751.09 114.503H1762.74V29.5696H1752.55V99.9429L1704.5 29.5696H1692.85V114.503H1703.04ZM1793.57 114.503V75.7976H1837.61V66.4549H1793.57V38.9123H1841.25V29.5696H1783.38V114.503H1793.57ZM1893.61 115.838C1919.33 115.838 1934.74 97.2736 1934.74 71.7936C1934.74 45.4643 1918.12 28.2349 1893.61 28.2349C1868.13 28.2349 1852.72 46.5563 1852.72 71.7936C1852.72 98.6083 1869.34 115.838 1893.61 115.838ZM1893.61 106.495C1874.92 106.495 1863.16 93.0269 1863.16 71.7936C1863.16 50.8029 1874.92 37.5776 1893.61 37.5776C1912.42 37.5776 1924.31 50.8029 1924.31 71.7936C1924.31 93.0269 1912.54 106.495 1893.61 106.495ZM1997.26 126.394C2007.45 126.394 2015.21 124.695 2022.86 121.54V117.9C2015.46 121.298 2007.45 123.239 1997.86 123.239C1970.44 123.239 1952.73 107.708 1952.73 81.8643C1952.73 55.2923 1971.29 35.7576 1997.86 35.7576C2021.77 35.7576 2038.39 51.4096 2038.39 75.0696C2038.39 89.7509 2031.96 100.671 2022.86 100.671C2017.03 100.671 2013.88 96.1816 2014.73 89.0229L2018.49 55.1709H2015.7L2013.64 67.1829C2011.69 58.8109 2005.39 53.4723 1996.29 53.4723C1982.45 53.4723 1972.63 66.3336 1972.63 82.1069C1972.63 95.6963 1980.51 103.583 1991.67 103.583C2001.02 103.583 2007.57 97.8803 2011.21 89.0229H2011.94C2010.85 98.2443 2015.09 103.583 2022.61 103.583C2033.9 103.583 2041.66 91.4496 2041.66 74.8269C2041.66 49.5896 2023.71 32.6029 1997.74 32.6029C1969.23 32.6029 1949.33 53.4723 1949.33 81.8643C1949.33 109.65 1968.26 126.394 1997.26 126.394ZM1991.43 100.428C1982.21 100.428 1976.02 93.9976 1976.02 81.9856C1976.02 67.9109 1984.27 56.6269 1996.53 56.6269C2007.33 56.6269 2013.39 65.4843 2011.94 78.1029C2010.12 91.3283 2002.47 100.428 1991.43 100.428ZM2097.06 115.838C2122.78 115.838 2138.19 97.2736 2138.19 71.7936C2138.19 45.4643 2121.57 28.2349 2097.06 28.2349C2071.58 28.2349 2056.17 46.5563 2056.17 71.7936C2056.17 98.6083 2072.79 115.838 2097.06 115.838ZM2097.06 106.495C2078.37 106.495 2066.6 93.0269 2066.6 71.7936C2066.6 50.8029 2078.37 37.5776 2097.06 37.5776C2115.86 37.5776 2127.75 50.8029 2127.75 71.7936C2127.75 93.0269 2115.98 106.495 2097.06 106.495ZM2165.15 114.503V79.4376H2194.51C2198.52 79.4376 2201.43 81.3789 2202.77 85.0189L2213.69 114.503H2224.61L2212.84 83.1989C2211.26 78.9523 2208.1 76.0403 2203.61 74.8269C2213.93 71.5509 2220.72 63.0576 2220.72 52.9869C2220.72 39.1549 2209.68 29.5696 2193.67 29.5696H2154.96V114.503H2165.15ZM2165.15 38.9123H2194.15C2203.37 38.9123 2210.41 44.0083 2210.41 53.9576C2210.41 63.0576 2204.71 70.3376 2194.15 70.3376H2165.15V38.9123ZM2278.89 114.503C2294.3 114.503 2304.97 105.039 2304.97 91.3283C2304.97 80.8936 2297.69 72.8856 2286.65 70.7016C2296.6 67.5469 2303.03 60.0243 2303.03 50.9243C2303.03 38.3056 2292.72 29.5696 2277.92 29.5696H2238.97V114.503H2278.89ZM2249.04 38.9123H2278.89C2287.02 38.9123 2292.72 44.2509 2292.72 52.0163C2292.72 60.6309 2286.41 66.6976 2277.31 66.6976H2249.04V38.9123ZM2249.04 75.7976H2277.92C2287.02 75.7976 2294.42 80.7723 2294.42 90.2363C2294.42 99.0936 2288.47 105.16 2279.98 105.16H2249.04V75.7976ZM2359.9 77.9816V75.0696H2317.8V77.9816H2359.9ZM2409.65 115.838C2428.46 115.838 2439.87 106.859 2439.87 91.9349C2439.87 75.9189 2426.88 71.6723 2416.08 68.2749L2402.37 64.0283C2395.09 61.7229 2385.39 59.7816 2385.39 50.4389C2385.39 42.3096 2392.91 37.4563 2403.59 37.4563C2417.06 37.4563 2425.43 44.1296 2426.28 56.1416H2436.83C2435.5 38.0629 2423.49 28.2349 2404.07 28.2349C2386.48 28.2349 2375.2 37.2136 2375.2 50.9243C2375.2 67.5469 2392.3 71.1869 2399.1 73.3709L2413.78 77.9816C2421.91 80.5296 2429.43 83.8056 2429.43 92.4203C2429.43 101.278 2422.64 106.616 2409.65 106.616C2394.73 106.616 2384.42 99.7003 2383.2 88.7803H2372.53C2373.62 104.796 2388.3 115.838 2409.65 115.838ZM2465.52 114.503V80.8936H2495.49C2510.54 80.8936 2522.67 71.6723 2522.67 54.4429C2522.67 40.8536 2513.21 29.5696 2495.49 29.5696H2455.33V114.503H2465.52ZM2465.52 38.9123H2495.98C2504.96 38.9123 2512.24 44.3723 2512.24 54.4429C2512.24 63.9069 2506.53 71.5509 2495.98 71.5509H2465.52V38.9123ZM2529.59 114.503L2539.54 90.2363H2578.85L2588.8 114.503H2599.36L2564.29 29.5696H2553.98L2519.04 114.503H2529.59ZM2559.2 42.5523L2574.97 81.0149H2543.42L2559.2 42.5523ZM2646.15 115.838C2668.36 115.838 2682.43 103.947 2686.19 81.8643H2675.64C2672.36 97.8803 2662.05 106.495 2646.15 106.495C2627.1 106.495 2615.33 93.5123 2615.33 71.7936C2615.33 50.8029 2627.1 37.5776 2646.15 37.5776C2661.56 37.5776 2672.48 46.6776 2675.64 62.2083H2686.19C2682.55 40.8536 2667.75 28.2349 2646.15 28.2349C2620.06 28.2349 2604.66 46.5563 2604.66 71.7936C2604.66 97.5163 2620.06 115.838 2646.15 115.838ZM2762.06 114.503V105.16H2713.05V74.8269H2756.12V65.7269H2713.05V38.9123H2760.97V29.5696H2702.97V114.503H2762.06ZM2781.73 115.716C2786.1 115.716 2789.38 112.44 2789.38 108.072C2789.38 103.826 2786.1 100.55 2781.73 100.55C2777.36 100.55 2774.09 103.826 2774.09 108.072C2774.09 112.44 2777.36 115.716 2781.73 115.716ZM2839.41 115.838C2861.61 115.838 2875.69 103.947 2879.45 81.8643H2868.89C2865.62 97.8803 2855.3 106.495 2839.41 106.495C2820.36 106.495 2808.59 93.5123 2808.59 71.7936C2808.59 50.8029 2820.36 37.5776 2839.41 37.5776C2854.82 37.5776 2865.74 46.6776 2868.89 62.2083H2879.45C2875.81 40.8536 2861.01 28.2349 2839.41 28.2349C2813.32 28.2349 2797.91 46.5563 2797.91 71.7936C2797.91 97.5163 2813.32 115.838 2839.41 115.838ZM2933.24 115.838C2958.96 115.838 2974.37 97.2736 2974.37 71.7936C2974.37 45.4643 2957.75 28.2349 2933.24 28.2349C2907.76 28.2349 2892.35 46.5563 2892.35 71.7936C2892.35 98.6083 2908.97 115.838 2933.24 115.838ZM2933.24 106.495C2914.55 106.495 2902.78 93.0269 2902.78 71.7936C2902.78 50.8029 2914.55 37.5776 2933.24 37.5776C2952.04 37.5776 2963.94 50.8029 2963.94 71.7936C2963.94 93.0269 2952.17 106.495 2933.24 106.495ZM3001.33 114.503V47.5269L3028.88 114.503H3038.7L3066.37 47.2843V114.503H3076.56V29.5696H3063.7L3033.85 102.37L3003.88 29.5696H2991.14V114.503H3001.33ZM3191.73 119.599H3196.83C3197.68 114.382 3199.99 108.679 3203.87 102.491C3211.63 90.2363 3227.29 78.2243 3240.75 75.4336V70.3376C3234.08 68.8816 3227.53 65.8483 3221.22 61.3589C3208.36 52.2589 3198.89 38.6696 3196.83 26.4149H3191.73C3190.52 32.8456 3187.73 39.0336 3183.36 45.3429C3174.75 57.8403 3161.28 67.0616 3147.57 70.3376V75.4336C3154.49 76.8896 3161.52 80.2869 3168.44 85.5043C3182.51 96.0603 3189.91 109.164 3191.73 119.599ZM3321.97 114.503V29.5696H3311.77V114.503H3321.97ZM3352.77 114.503V44.1296L3400.82 114.503H3412.47V29.5696H3402.28V99.9429L3354.23 29.5696H3342.58V114.503H3352.77ZM3443.3 114.503V75.7976H3487.34V66.4549H3443.3V38.9123H3490.98V29.5696H3433.11V114.503H3443.3ZM3543.34 115.838C3569.06 115.838 3584.47 97.2736 3584.47 71.7936C3584.47 45.4643 3567.85 28.2349 3543.34 28.2349C3517.86 28.2349 3502.45 46.5563 3502.45 71.7936C3502.45 98.6083 3519.07 115.838 3543.34 115.838ZM3543.34 106.495C3524.66 106.495 3512.89 93.0269 3512.89 71.7936C3512.89 50.8029 3524.66 37.5776 3543.34 37.5776C3562.15 37.5776 3574.04 50.8029 3574.04 71.7936C3574.04 93.0269 3562.27 106.495 3543.34 106.495ZM3646.99 126.394C3657.18 126.394 3664.94 124.695 3672.59 121.54V117.9C3665.19 121.298 3657.18 123.239 3647.59 123.239C3620.17 123.239 3602.46 107.708 3602.46 81.8643C3602.46 55.2923 3621.02 35.7576 3647.59 35.7576C3671.5 35.7576 3688.12 51.4096 3688.12 75.0696C3688.12 89.7509 3681.69 100.671 3672.59 100.671C3666.76 100.671 3663.61 96.1816 3664.46 89.0229L3668.22 55.1709H3665.43L3663.37 67.1829C3661.43 58.8109 3655.12 53.4723 3646.02 53.4723C3632.18 53.4723 3622.36 66.3336 3622.36 82.1069C3622.36 95.6963 3630.24 103.583 3641.41 103.583C3650.75 103.583 3657.3 97.8803 3660.94 89.0229H3661.67C3660.58 98.2443 3664.82 103.583 3672.35 103.583C3683.63 103.583 3691.39 91.4496 3691.39 74.8269C3691.39 49.5896 3673.44 32.6029 3647.47 32.6029C3618.96 32.6029 3599.06 53.4723 3599.06 81.8643C3599.06 109.65 3617.99 126.394 3646.99 126.394ZM3641.16 100.428C3631.94 100.428 3625.75 93.9976 3625.75 81.9856C3625.75 67.9109 3634 56.6269 3646.26 56.6269C3657.06 56.6269 3663.12 65.4843 3661.67 78.1029C3659.85 91.3283 3652.2 100.428 3641.16 100.428ZM3746.79 115.838C3772.51 115.838 3787.92 97.2736 3787.92 71.7936C3787.92 45.4643 3771.3 28.2349 3746.79 28.2349C3721.31 28.2349 3705.9 46.5563 3705.9 71.7936C3705.9 98.6083 3722.52 115.838 3746.79 115.838ZM3746.79 106.495C3728.1 106.495 3716.33 93.0269 3716.33 71.7936C3716.33 50.8029 3728.1 37.5776 3746.79 37.5776C3765.59 37.5776 3777.48 50.8029 3777.48 71.7936C3777.48 93.0269 3765.72 106.495 3746.79 106.495ZM3814.88 114.503V79.4376H3844.25C3848.25 79.4376 3851.16 81.3789 3852.5 85.0189L3863.42 114.503H3874.34L3862.57 83.1989C3860.99 78.9523 3857.83 76.0403 3853.35 74.8269C3863.66 71.5509 3870.45 63.0576 3870.45 52.9869C3870.45 39.1549 3859.41 29.5696 3843.4 29.5696H3804.69V114.503H3814.88ZM3814.88 38.9123H3843.88C3853.1 38.9123 3860.14 44.0083 3860.14 53.9576C3860.14 63.0576 3854.44 70.3376 3843.88 70.3376H3814.88V38.9123ZM3928.62 114.503C3944.03 114.503 3954.7 105.039 3954.7 91.3283C3954.7 80.8936 3947.42 72.8856 3936.38 70.7016C3946.33 67.5469 3952.76 60.0243 3952.76 50.9243C3952.76 38.3056 3942.45 29.5696 3927.65 29.5696H3888.7V114.503H3928.62ZM3898.77 38.9123H3928.62C3936.75 38.9123 3942.45 44.2509 3942.45 52.0163C3942.45 60.6309 3936.14 66.6976 3927.04 66.6976H3898.77V38.9123ZM3898.77 75.7976H3927.65C3936.75 75.7976 3944.15 80.7723 3944.15 90.2363C3944.15 99.0936 3938.2 105.16 3929.71 105.16H3898.77V75.7976ZM4009.63 77.9816V75.0696H3967.53V77.9816H4009.63ZM4059.38 115.838C4078.19 115.838 4089.6 106.859 4089.6 91.9349C4089.6 75.9189 4076.61 71.6723 4065.82 68.2749L4052.1 64.0283C4044.82 61.7229 4035.12 59.7816 4035.12 50.4389C4035.12 42.3096 4042.64 37.4563 4053.32 37.4563C4066.79 37.4563 4075.16 44.1296 4076.01 56.1416H4086.56C4085.23 38.0629 4073.22 28.2349 4053.8 28.2349C4036.21 28.2349 4024.93 37.2136 4024.93 50.9243C4024.93 67.5469 4042.03 71.1869 4048.83 73.3709L4063.51 77.9816C4071.64 80.5296 4079.16 83.8056 4079.16 92.4203C4079.16 101.278 4072.37 106.616 4059.38 106.616C4044.46 106.616 4034.15 99.7003 4032.93 88.7803H4022.26C4023.35 104.796 4038.03 115.838 4059.38 115.838ZM4115.25 114.503V80.8936H4145.22C4160.27 80.8936 4172.4 71.6723 4172.4 54.4429C4172.4 40.8536 4162.94 29.5696 4145.22 29.5696H4105.06V114.503H4115.25ZM4115.25 38.9123H4145.71C4154.69 38.9123 4161.97 44.3723 4161.97 54.4429C4161.97 63.9069 4156.26 71.5509 4145.71 71.5509H4115.25V38.9123ZM4179.32 114.503L4189.27 90.2363H4228.58L4238.53 114.503H4249.09L4214.02 29.5696H4203.71L4168.77 114.503H4179.32ZM4208.93 42.5523L4224.7 81.0149H4193.15L4208.93 42.5523ZM4295.88 115.838C4318.09 115.838 4332.16 103.947 4335.92 81.8643H4325.37C4322.09 97.8803 4311.78 106.495 4295.88 106.495C4276.83 106.495 4265.06 93.5123 4265.06 71.7936C4265.06 50.8029 4276.83 37.5776 4295.88 37.5776C4311.29 37.5776 4322.21 46.6776 4325.37 62.2083H4335.92C4332.28 40.8536 4317.48 28.2349 4295.88 28.2349C4269.8 28.2349 4254.39 46.5563 4254.39 71.7936C4254.39 97.5163 4269.8 115.838 4295.88 115.838ZM4411.79 114.503V105.16H4362.78V74.8269H4405.85V65.7269H4362.78V38.9123H4410.7V29.5696H4352.7V114.503H4411.79ZM4431.46 115.716C4435.83 115.716 4439.11 112.44 4439.11 108.072C4439.11 103.826 4435.83 100.55 4431.46 100.55C4427.09 100.55 4423.82 103.826 4423.82 108.072C4423.82 112.44 4427.09 115.716 4431.46 115.716ZM4489.14 115.838C4511.34 115.838 4525.42 103.947 4529.18 81.8643H4518.62C4515.35 97.8803 4505.03 106.495 4489.14 106.495C4470.09 106.495 4458.32 93.5123 4458.32 71.7936C4458.32 50.8029 4470.09 37.5776 4489.14 37.5776C4504.55 37.5776 4515.47 46.6776 4518.62 62.2083H4529.18C4525.54 40.8536 4510.74 28.2349 4489.14 28.2349C4463.05 28.2349 4447.64 46.5563 4447.64 71.7936C4447.64 97.5163 4463.05 115.838 4489.14 115.838ZM4582.97 115.838C4608.69 115.838 4624.1 97.2736 4624.1 71.7936C4624.1 45.4643 4607.48 28.2349 4582.97 28.2349C4557.49 28.2349 4542.08 46.5563 4542.08 71.7936C4542.08 98.6083 4558.7 115.838 4582.97 115.838ZM4582.97 106.495C4564.28 106.495 4552.51 93.0269 4552.51 71.7936C4552.51 50.8029 4564.28 37.5776 4582.97 37.5776C4601.77 37.5776 4613.67 50.8029 4613.67 71.7936C4613.67 93.0269 4601.9 106.495 4582.97 106.495ZM4651.06 114.503V47.5269L4678.61 114.503H4688.43L4716.1 47.2843V114.503H4726.29V29.5696H4713.43L4683.58 102.37L4653.61 29.5696H4640.87V114.503H4651.06Z" fill="#1C1C21"/>
</svg>
