<svg width="4800" height="835" viewBox="0 0 1920 334" fill="none" xmlns="http://www.w3.org/2000/svg">
<path d="M337.623 101.777H388.061V148.463H337.623V319.785H278.432V148.463H243V101.777H278.432V38H337.623V101.777Z" fill="white"/>
<path d="M713.557 97.4547C734.955 97.4547 753.574 102.596 769.414 112.878C785.254 122.882 797.342 136.638 805.679 154.145C814.294 171.375 818.601 190.411 818.601 211.253C818.601 232.928 814.155 252.381 805.262 269.611C796.647 286.562 784.142 299.901 767.746 309.627C751.351 319.354 732.176 324.217 710.222 324.217C696.049 324.217 682.294 321.021 668.955 314.63C655.894 308.238 645.473 299.206 637.692 287.535V319.632H578.5V7H637.692V139.556C643.249 126.495 652.698 116.213 666.037 108.709C679.654 101.206 695.494 97.4547 713.557 97.4547ZM698.134 270.861C715.919 270.861 730.508 265.303 741.902 254.187C753.296 242.794 758.993 228.343 758.993 210.836C758.993 193.051 753.296 178.6 741.902 167.484C730.508 156.368 715.919 150.811 698.134 150.811C680.626 150.811 666.176 156.507 654.782 167.901C643.666 179.017 638.108 193.328 638.108 210.836C638.108 228.065 643.666 242.377 654.782 253.771C666.176 265.164 680.626 270.861 698.134 270.861Z" fill="white"/>
<path d="M1195.14 97C1210.98 97 1225.57 100.474 1238.91 107.421C1252.24 114.091 1262.94 124.651 1271 139.101C1279.06 153.274 1283.09 171.059 1283.09 192.457V319.594H1223.07V201.627C1223.07 182.175 1218.62 168.419 1209.73 160.36C1201.11 152.023 1190.13 147.855 1176.8 147.855C1161.79 147.855 1149.84 152.579 1140.95 162.027C1132.33 171.476 1128.03 185.371 1128.03 203.712V319.594H1068V101.585H1118.02L1127.19 132.848C1141.92 108.949 1164.57 97 1195.14 97Z" fill="white"/>
<path d="M1465.91 8H1525.1V320.632H1465.91V283.116C1460.63 295.899 1451.18 306.042 1437.56 313.545C1424.23 321.048 1408.52 324.8 1390.46 324.8C1369.06 324.8 1350.31 319.798 1334.19 309.794C1318.35 299.512 1306.12 285.756 1297.51 268.526C1289.17 251.019 1285 231.844 1285 211.002C1285 189.326 1289.31 170.013 1297.92 153.061C1306.81 135.832 1319.46 122.354 1335.85 112.627C1352.25 102.901 1371.43 98.0379 1393.38 98.0379C1407.83 98.0379 1421.59 101.234 1434.65 107.625C1447.71 114.017 1458.13 123.048 1465.91 134.72V8ZM1405.88 271.861C1423.11 271.861 1437.43 266.164 1448.82 254.771C1460.21 243.377 1465.91 228.926 1465.91 211.419C1465.91 194.19 1460.21 180.017 1448.82 168.901C1437.43 157.507 1423.11 151.811 1405.88 151.811C1388.1 151.811 1373.51 157.368 1362.12 168.484C1350.72 179.6 1345.03 193.912 1345.03 211.419C1345.03 229.204 1350.72 243.794 1362.12 255.187C1373.51 266.303 1388.1 271.861 1405.88 271.861Z" fill="white"/>
<path d="M1834.94 131.179C1846.06 111.726 1863.7 102 1887.88 102C1890.1 102 1894.27 102.278 1900.39 102.834L1899.97 153.688C1896.36 153.133 1891.21 152.855 1884.55 152.855C1852.31 152.855 1836.19 167.444 1836.19 196.623V321.259H1777V103.251H1825.35L1834.94 131.179Z" fill="white"/>
<path d="M151.459 320.762C123.392 320.762 99.7705 314.51 80.5958 302.004C61.6989 289.499 51.8337 270.88 51 246.147L108.524 244.063C109.358 253.234 113.804 260.598 121.863 266.156C130.2 271.714 140.621 274.493 153.126 274.493C162.853 274.493 170.773 272.825 176.886 269.491C183 265.878 186.057 261.015 186.057 254.901C186.057 248.232 182.444 243.23 175.219 239.895C168.272 236.56 157.017 233.086 141.455 229.474C124.781 225.583 110.886 221.554 99.7705 217.385C88.9326 212.939 79.4842 206.269 71.4253 197.377C63.6442 188.206 59.7537 176.257 59.7537 161.528C59.7537 147.634 63.6442 135.684 71.4253 125.68C79.2063 115.398 89.7663 107.617 103.105 102.337C116.444 96.779 131.173 94 147.291 94C164.798 94 180.36 97.1958 193.977 103.587C207.872 109.701 218.709 118.177 226.491 129.015C234.272 139.575 238.301 151.107 238.579 163.613L182.305 165.28C181.194 157.499 177.442 151.107 171.051 146.105C164.937 141.103 156.739 138.602 146.457 138.602C138.398 138.602 131.451 140.269 125.615 143.604C120.057 146.939 117.278 151.524 117.278 157.36C117.278 163.752 120.752 168.476 127.699 171.533C134.646 174.59 145.901 178.063 161.463 181.954C178.693 185.844 192.865 190.013 203.981 194.459C215.375 198.627 225.101 205.436 233.16 214.884C241.497 224.055 245.665 236.421 245.665 251.983C245.665 273.659 236.912 290.611 219.404 302.838C202.175 314.787 179.526 320.762 151.459 320.762Z" fill="white"/>
<path d="M343 321.51L426.369 103.502L486.394 103.502L574.348 321.51L510.154 321.51C490.979 268.71 477.779 231.333 470.554 209.379C463.329 187.426 458.466 170.335 455.964 158.108C453.741 172.003 449.295 189.927 442.626 211.881C435.956 233.834 423.729 270.377 405.943 321.51L343 321.51Z" fill="white"/>
<path d="M1541 322.008L1624.37 104L1684.39 104L1772.35 322.008L1708.15 322.008C1688.98 269.208 1675.78 231.832 1668.55 209.878C1661.33 187.924 1656.47 170.834 1653.96 158.606C1651.74 172.501 1647.3 190.425 1640.63 212.379C1633.96 234.333 1621.73 270.876 1603.94 322.008L1541 322.008Z" fill="white"/>
<path d="M937.549 319.762C915.04 319.762 894.754 314.899 876.691 305.173C858.905 295.446 845.011 281.968 835.006 264.739C825.002 247.51 820 228.057 820 206.381C820 184.705 825.002 165.253 835.006 148.023C845.288 130.794 859.322 117.316 877.107 107.589C894.893 97.8632 915.04 93 937.549 93C960.059 93 980.206 97.8632 997.992 107.589C1016.05 117.316 1030.09 130.794 1040.09 148.023C1050.37 165.253 1055.52 184.705 1055.52 206.381C1055.52 228.057 1050.37 247.51 1040.09 264.739C1030.09 281.968 1016.19 295.446 998.408 305.173C980.623 314.899 960.337 319.762 937.549 319.762ZM937.549 266.406C955.057 266.406 969.507 260.71 980.901 249.316C992.573 237.922 998.408 223.611 998.408 206.381C998.408 188.874 992.573 174.562 980.901 163.446C969.507 152.053 955.057 146.356 937.549 146.356C920.32 146.356 906.008 152.053 894.615 163.446C883.221 174.562 877.524 188.874 877.524 206.381C877.524 223.611 883.221 237.922 894.615 249.316C906.008 260.71 920.32 266.406 937.549 266.406Z" fill="white"/>
</svg>
