<svg width="781" height="407" viewBox="0 0 781 407" fill="none" xmlns="http://www.w3.org/2000/svg">
<rect y="338.713" width="39.7512" height="780.946" transform="rotate(-90 0 338.713)" fill="#0A0A0A"/>
<rect y="371.838" width="39.7512" height="730.429" transform="rotate(-90 0 371.838)" fill="#0A0A0A"/>
<rect y="406.622" width="39.7512" height="311.385" transform="rotate(-90 0 406.622)" fill="#0A0A0A"/>
<rect y="170.599" width="39.7512" height="736.226" transform="rotate(-90 0 170.599)" fill="#0A0A0A"/>
<rect y="203.724" width="39.7512" height="698.959" transform="rotate(-90 0 203.724)" fill="#0A0A0A"/>
<rect y="270.804" width="39.7512" height="162.318" transform="rotate(-90 0 270.804)" fill="#0A0A0A"/>
<rect y="238.507" width="39.7512" height="668.318" transform="rotate(-90 0 238.507)" fill="#0A0A0A"/>
<rect x="0.000488281" y="39.7515" width="39.7512" height="780.946" transform="rotate(-90 0.000488281 39.7515)" fill="#0A0A0A"/>
<rect x="0.000488281" y="72.8784" width="39.7512" height="621.113" transform="rotate(-90 0.000488281 72.8784)" fill="#0A0A0A"/>
<rect x="0.000488281" y="107.66" width="39.7512" height="236.023" transform="rotate(-90 0.000488281 107.66)" fill="#0A0A0A"/>
<path d="M13.0915 33.3121C20.1142 33.3121 24.3212 28.2439 24.3212 21.2874C24.3212 14.099 19.783 9.39515 13.0915 9.39515C6.13505 9.39515 1.92804 14.3972 1.92804 21.2874C1.92804 28.6082 6.46631 33.3121 13.0915 33.3121ZM13.0915 30.7614C7.99011 30.7614 4.77688 27.0844 4.77688 21.2874C4.77688 15.5566 7.99011 11.9459 13.0915 11.9459C18.226 11.9459 21.4724 15.5566 21.4724 21.2874C21.4724 27.0844 18.2592 30.7614 13.0915 30.7614ZM31.6827 32.9478L31.6827 23.3743L39.6992 23.3743C40.7924 23.3743 41.5874 23.9043 41.9518 24.8981L44.9331 32.9478H47.9145L44.7012 24.4012C44.2706 23.2418 43.4093 22.4468 42.1837 22.1155C44.9994 21.2211 46.8544 18.9023 46.8544 16.1529C46.8544 12.3765 43.84 9.75953 39.4673 9.75953L28.9001 9.75953L28.9001 32.9478H31.6827ZM31.6827 12.3102L39.5998 12.3102C42.1174 12.3102 44.0387 13.7015 44.0387 16.4179C44.0387 18.9023 42.4818 20.8899 39.5998 20.8899L31.6827 20.8899V12.3102ZM62.7345 32.9478C66.9415 32.9478 69.8566 30.3639 69.8566 26.6207C69.8566 23.7718 67.869 21.5855 64.8546 20.9893C67.5709 20.128 69.3266 18.0742 69.3266 15.5897C69.3266 12.1446 66.5109 9.75953 62.4695 9.75953L51.836 9.75953V32.9478H62.7345ZM54.5855 12.3102L62.7345 12.3102C64.9539 12.3102 66.5109 13.7678 66.5109 15.8878C66.5109 18.2398 64.7883 19.8961 62.3038 19.8961L54.5855 19.8961V12.3102ZM54.5855 22.3806H62.4695C64.9539 22.3806 66.9746 23.7387 66.9746 26.3225C66.9746 28.7407 65.3514 30.397 63.0326 30.397H54.5855V22.3806ZM90.8013 33.3121C95.9358 33.3121 99.0497 30.8608 99.0497 26.7863C99.0497 22.4137 95.5052 21.2543 92.557 20.3267L88.8137 19.1673C86.8262 18.5379 84.1761 18.0079 84.1761 15.4572C84.1761 13.2378 86.2299 11.9127 89.145 11.9127C92.822 11.9127 95.1077 13.7347 95.3395 17.0141L98.2215 17.0141C97.8571 12.0784 94.5777 9.39515 89.2775 9.39515C84.4742 9.39515 81.3935 11.8465 81.3935 15.5897C81.3935 20.128 86.0643 21.1218 87.9193 21.718L91.9276 22.9768C94.147 23.6725 96.2008 24.5669 96.2008 26.9188C96.2008 29.337 94.3458 30.7946 90.8013 30.7946C86.7268 30.7946 83.9111 28.9064 83.5798 25.925H80.6647C80.9629 30.2977 84.9711 33.3121 90.8013 33.3121ZM106.055 32.9478V23.7718L114.237 23.7718C118.344 23.7718 121.657 21.2543 121.657 16.5504C121.657 12.8403 119.073 9.75953 114.237 9.75953L103.272 9.75953V32.9478H106.055ZM106.055 12.3102H114.369C116.82 12.3102 118.808 13.8009 118.808 16.5504C118.808 19.1342 117.251 21.2211 114.369 21.2211L106.055 21.2211V12.3102ZM123.546 32.9478L126.262 26.3225L136.995 26.3225L139.712 32.9478H142.594L133.02 9.75953H130.204L120.664 32.9478H123.546ZM131.629 13.304L135.935 23.805L127.322 23.805L131.629 13.304ZM155.369 33.3121C161.431 33.3121 165.274 30.0658 166.301 24.0369H163.419C162.524 28.4095 159.709 30.7614 155.369 30.7614C150.168 30.7614 146.955 27.2169 146.955 21.2874C146.955 15.5566 150.168 11.9459 155.369 11.9459C159.576 11.9459 162.557 14.4303 163.419 18.6704H166.301C165.307 12.8403 161.266 9.39515 155.369 9.39515C148.247 9.39515 144.04 14.3972 144.04 21.2874C144.04 28.3101 148.247 33.3121 155.369 33.3121ZM187.015 32.9478V30.397L173.632 30.397V22.1155L185.392 22.1155V19.6311L173.632 19.6311V12.3102L186.717 12.3102V9.75953L170.883 9.75953V32.9478H187.015ZM201.68 32.9478V9.75953H198.897V32.9478H201.68ZM216.286 33.3121C221.42 33.3121 224.534 30.8608 224.534 26.7863C224.534 22.4137 220.989 21.2543 218.041 20.3267L214.298 19.1673C212.31 18.5379 209.66 18.0079 209.66 15.4572C209.66 13.2378 211.714 11.9127 214.629 11.9127C218.306 11.9127 220.592 13.7347 220.824 17.0141H223.706C223.341 12.0784 220.062 9.39515 214.762 9.39515C209.958 9.39515 206.878 11.8465 206.878 15.5897C206.878 20.128 211.548 21.1218 213.404 21.718L217.412 22.9768C219.631 23.6725 221.685 24.5669 221.685 26.9188C221.685 29.337 219.83 30.7946 216.286 30.7946C212.211 30.7946 209.395 28.9064 209.064 25.925H206.149C206.447 30.2977 210.455 33.3121 216.286 33.3121ZM237.19 32.9478L239.907 26.3225L250.64 26.3225L253.356 32.9478H256.238L246.664 9.75953H243.849L234.308 32.9478H237.19ZM245.273 13.304L249.579 23.805L240.967 23.805L245.273 13.304ZM277.683 33.3121C283.745 33.3121 287.588 30.0658 288.615 24.0369H285.733C284.838 28.4095 282.023 30.7614 277.683 30.7614C272.482 30.7614 269.269 27.2169 269.269 21.2874C269.269 15.5566 272.482 11.9459 277.683 11.9459C281.89 11.9459 284.871 14.4303 285.733 18.6704L288.615 18.6704C287.621 12.8403 283.579 9.39515 277.683 9.39515C270.561 9.39515 266.354 14.3972 266.354 21.2874C266.354 28.3101 270.561 33.3121 277.683 33.3121ZM303.3 33.3121C310.323 33.3121 314.53 28.2439 314.53 21.2874C314.53 14.099 309.992 9.39515 303.3 9.39515C296.344 9.39515 292.137 14.3972 292.137 21.2874C292.137 28.6082 296.675 33.3121 303.3 33.3121ZM303.3 30.7614C298.199 30.7614 294.985 27.0844 294.985 21.2874C294.985 15.5566 298.199 11.9459 303.3 11.9459C308.435 11.9459 311.681 15.5566 311.681 21.2874C311.681 27.0844 308.468 30.7614 303.3 30.7614ZM321.891 32.9478V14.6622L329.411 32.9478H332.094L339.647 14.5959V32.9478H342.429V9.75953L338.918 9.75953L330.769 29.6351L322.587 9.75953L319.109 9.75953V32.9478H321.891ZM350.844 32.9478V23.7718H359.026C363.134 23.7718 366.447 21.2543 366.447 16.5504C366.447 12.8403 363.863 9.75953 359.026 9.75953L348.062 9.75953V32.9478H350.844ZM350.844 12.3102L359.159 12.3102C361.61 12.3102 363.598 13.8009 363.598 16.5504C363.598 19.1342 362.041 21.2211 359.159 21.2211H350.844V12.3102ZM368.336 32.9478L371.052 26.3225L381.785 26.3225L384.501 32.9478H387.383L377.81 9.75953L374.994 9.75953L365.454 32.9478H368.336ZM376.419 13.304L380.725 23.805L372.112 23.805L376.419 13.304ZM393.902 32.9478V13.7347L407.019 32.9478H410.2V9.75953H407.417V28.9726L394.299 9.75953H391.119V32.9478H393.902ZM425.176 32.9478V22.7118L434.02 9.75953L430.741 9.75953L423.817 20.0617L416.861 9.75953H413.582L422.393 22.7118V32.9478H425.176ZM453.994 32.9478V12.3102L462.011 12.3102V9.75953L443.195 9.75953V12.3102L451.212 12.3102V32.9478H453.994ZM468.759 32.9478V22.2812H483.003V32.9478H485.785V9.75953H483.003V19.7305H468.759V9.75953L465.976 9.75953V32.9478H468.759ZM492.397 32.9478L495.113 26.3225L505.846 26.3225L508.562 32.9478H511.444L501.871 9.75953H499.055L489.515 32.9478H492.397ZM500.479 13.304L504.786 23.805L496.173 23.805L500.479 13.304ZM521.023 32.9478V12.3102L529.039 12.3102V9.75953L510.224 9.75953V12.3102L518.24 12.3102V32.9478H521.023ZM550.714 33.3121C556.776 33.3121 560.619 30.0658 561.646 24.0369L558.764 24.0369C557.869 28.4095 555.053 30.7614 550.714 30.7614C545.513 30.7614 542.3 27.2169 542.3 21.2874C542.3 15.5566 545.513 11.9459 550.714 11.9459C554.921 11.9459 557.902 14.4303 558.764 18.6704H561.646C560.652 12.8403 556.61 9.39515 550.714 9.39515C543.592 9.39515 539.385 14.3972 539.385 21.2874C539.385 28.3101 543.592 33.3121 550.714 33.3121ZM569.01 32.9478V23.3743L577.027 23.3743C578.12 23.3743 578.915 23.9043 579.279 24.8981L582.261 32.9478H585.242L582.029 24.4012C581.598 23.2418 580.737 22.4468 579.511 22.1155C582.327 21.2211 584.182 18.9023 584.182 16.1529C584.182 12.3765 581.167 9.75953 576.795 9.75953L566.228 9.75953V32.9478H569.01ZM569.01 12.3102L576.927 12.3102C579.445 12.3102 581.366 13.7015 581.366 16.4179C581.366 18.9023 579.809 20.8899 576.927 20.8899L569.01 20.8899V12.3102ZM605.296 32.9478V30.397L591.913 30.397V22.1155L603.673 22.1155V19.6311L591.913 19.6311V12.3102L604.998 12.3102V9.75953L589.163 9.75953V32.9478L605.296 32.9478ZM610.732 32.9478L613.448 26.3225L624.181 26.3225L626.897 32.9478H629.779L620.206 9.75953L617.39 9.75953L607.85 32.9478H610.732ZM618.814 13.304L623.121 23.805L614.508 23.805L618.814 13.304ZM639.358 32.9478V12.3102L647.374 12.3102V9.75953L628.559 9.75953V12.3102L636.575 12.3102V32.9478H639.358ZM667.472 32.9478V30.397L654.089 30.397V22.1155L665.849 22.1155V19.6311L654.089 19.6311V12.3102L667.174 12.3102V9.75953L651.339 9.75953V32.9478L667.472 32.9478ZM680.891 33.3121C686.025 33.3121 689.139 30.8608 689.139 26.7863C689.139 22.4137 685.595 21.2543 682.647 20.3267L678.903 19.1673C676.916 18.5379 674.266 18.0079 674.266 15.4572C674.266 13.2378 676.32 11.9127 679.235 11.9127C682.912 11.9127 685.197 13.7347 685.429 17.0141H688.311C687.947 12.0784 684.667 9.39515 679.367 9.39515C674.564 9.39515 671.483 11.8465 671.483 15.5897C671.483 20.128 676.154 21.1218 678.009 21.718L682.017 22.9768C684.237 23.6725 686.29 24.5669 686.29 26.9188C686.29 29.337 684.435 30.7946 680.891 30.7946C676.816 30.7946 674.001 28.9064 673.669 25.925L670.754 25.925C671.052 30.2977 675.061 33.3121 680.891 33.3121ZM3.98186 65.9478L6.69819 59.3225L17.431 59.3225L20.1474 65.9478H23.0293L13.4559 42.7595H10.6402L1.09989 65.9478H3.98186ZM12.0646 46.304L16.371 56.805L7.75822 56.805L12.0646 46.304ZM42.8974 65.9478V63.397L29.5145 63.397V55.1155H41.2743V52.6311H29.5145V45.3102H42.5993V42.7595H26.7651V65.9478L42.8974 65.9478ZM56.3166 66.3121C61.4511 66.3121 64.565 63.8608 64.565 59.7863C64.565 55.4137 61.0205 54.2543 58.0723 53.3267L54.329 52.1673C52.3415 51.5379 49.6914 51.0079 49.6914 48.4572C49.6914 46.2378 51.7452 44.9127 54.6603 44.9127C58.3373 44.9127 60.623 46.7347 60.8548 50.0141H63.7368C63.3724 45.0784 60.0929 42.3951 54.7928 42.3951C49.9895 42.3951 46.9088 44.8465 46.9088 48.5897C46.9088 53.128 51.5796 54.1218 53.4346 54.718L57.4429 55.9768C59.6623 56.6725 61.7161 57.5669 61.7161 59.9188C61.7161 62.337 59.8611 63.7946 56.3166 63.7946C52.2421 63.7946 49.4264 61.9064 49.0951 58.925H46.18C46.4781 63.2977 50.4864 66.3121 56.3166 66.3121ZM77.0242 65.9478V45.3102H85.0407V42.7595L66.2251 42.7595V45.3102L74.2416 45.3102V65.9478H77.0242ZM91.7883 65.9478V55.2812L106.033 55.2812V65.9478H108.815V42.7595H106.033V52.7305L91.7883 52.7305V42.7595H89.0057V65.9478H91.7883ZM130.565 65.9478V63.397L117.182 63.397V55.1155L128.942 55.1155V52.6311L117.182 52.6311V45.3102L130.267 45.3102V42.7595L114.433 42.7595V65.9478H130.565ZM144.15 65.9478V45.3102H152.166V42.7595H133.351V45.3102H141.367V65.9478H144.15ZM158.914 65.9478V42.7595H156.131V65.9478H158.914ZM174.811 66.3121C180.873 66.3121 184.716 63.0658 185.743 57.0368L182.861 57.0368C181.966 61.4095 179.151 63.7614 174.811 63.7614C169.61 63.7614 166.397 60.2169 166.397 54.2874C166.397 48.5566 169.61 44.9459 174.811 44.9459C179.018 44.9459 182 47.4303 182.861 51.6704L185.743 51.6704C184.749 45.8403 180.708 42.3951 174.811 42.3951C167.689 42.3951 163.482 47.3972 163.482 54.2874C163.482 61.3101 167.689 66.3121 174.811 66.3121ZM199.302 66.3121C204.436 66.3121 207.55 63.8608 207.55 59.7863C207.55 55.4137 204.006 54.2543 201.058 53.3267L197.314 52.1673C195.327 51.5379 192.677 51.0079 192.677 48.4572C192.677 46.2378 194.731 44.9127 197.646 44.9127C201.323 44.9127 203.608 46.7347 203.84 50.0141H206.722C206.358 45.0784 203.078 42.3951 197.778 42.3951C192.975 42.3951 189.894 44.8465 189.894 48.5897C189.894 53.128 194.565 54.1218 196.42 54.718L200.428 55.9768C202.648 56.6725 204.701 57.5669 204.701 59.9188C204.701 62.337 202.846 63.7946 199.302 63.7946C195.227 63.7946 192.412 61.9064 192.08 58.925H189.165C189.464 63.2977 193.472 66.3121 199.302 66.3121ZM214.808 60.9457L212.456 60.2169L208.978 71.3142L211.197 72.0098L214.808 60.9457ZM236.955 66.3121C243.017 66.3121 246.86 63.0658 247.886 57.0368H245.004C244.11 61.4095 241.294 63.7614 236.955 63.7614C231.754 63.7614 228.541 60.2169 228.541 54.2874C228.541 48.5566 231.754 44.9459 236.955 44.9459C241.162 44.9459 244.143 47.4303 245.004 51.6704H247.886C246.893 45.8403 242.851 42.3951 236.955 42.3951C229.833 42.3951 225.626 47.3972 225.626 54.2874C225.626 61.3101 229.833 66.3121 236.955 66.3121ZM262.572 66.3121C269.595 66.3121 273.802 61.2439 273.802 54.2874C273.802 47.099 269.263 42.3951 262.572 42.3951C255.615 42.3951 251.408 47.3972 251.408 54.2874C251.408 61.6082 255.947 66.3121 262.572 66.3121ZM262.572 63.7614C257.47 63.7614 254.257 60.0844 254.257 54.2874C254.257 48.5566 257.47 44.9459 262.572 44.9459C267.706 44.9459 270.953 48.5566 270.953 54.2874C270.953 60.0844 267.74 63.7614 262.572 63.7614ZM281.163 65.9478V47.6622L288.683 65.9478H291.366L298.919 47.5959V65.9478H301.701V42.7595H298.19L290.041 62.6351L281.859 42.7595H278.381V65.9478H281.163ZM310.116 65.9478V55.3805H322.141V52.8298H310.116V45.3102H323.135V42.7595H307.333V65.9478H310.116ZM337.429 66.3121C344.452 66.3121 348.659 61.2439 348.659 54.2874C348.659 47.099 344.12 42.3951 337.429 42.3951C330.472 42.3951 326.265 47.3972 326.265 54.2874C326.265 61.6082 330.804 66.3121 337.429 66.3121ZM337.429 63.7614C332.328 63.7614 329.114 60.0844 329.114 54.2874C329.114 48.5566 332.328 44.9459 337.429 44.9459C342.563 44.9459 345.81 48.5566 345.81 54.2874C345.81 60.0844 342.597 63.7614 337.429 63.7614ZM356.02 65.9478V56.3743H364.037C365.13 56.3743 365.925 56.9043 366.289 57.8981L369.271 65.9478H372.252L369.039 57.4012C368.608 56.2418 367.747 55.4468 366.521 55.1155C369.337 54.2211 371.192 51.9023 371.192 49.1529C371.192 45.3765 368.177 42.7595 363.805 42.7595L353.238 42.7595V65.9478H356.02ZM356.02 45.3102H363.937C366.455 45.3102 368.376 46.7015 368.376 49.4179C368.376 51.9023 366.819 53.8899 363.937 53.8899H356.02V45.3102ZM385.316 65.9478V45.3102H393.333V42.7595L374.517 42.7595V45.3102H382.534V65.9478L385.316 65.9478ZM405.732 65.9478L408.448 59.3225L419.181 59.3225L421.897 65.9478H424.779L415.206 42.7595H412.39L402.85 65.9478H405.732ZM413.815 46.304L418.121 56.805L409.508 56.805L413.815 46.304ZM431.298 65.9478V46.7347L444.416 65.9478H447.596V42.7595H444.813V61.9726L431.695 42.7595H428.515V65.9478H431.298ZM461.412 65.9478C468.071 65.9478 472.708 61.1445 472.708 54.2211C472.708 47.4634 468.071 42.7595 461.412 42.7595H453.23V65.9478H461.412ZM456.013 45.3102H461.578C466.381 45.3102 469.76 49.2191 469.76 54.2211C469.76 59.6207 466.381 63.397 461.578 63.397H456.013V45.3102ZM495.605 65.9478C499.812 65.9478 502.727 63.3639 502.727 59.6207C502.727 56.7718 500.739 54.5855 497.725 53.9893C500.441 53.128 502.197 51.0742 502.197 48.5897C502.197 45.1446 499.381 42.7595 495.34 42.7595H484.706V65.9478H495.605ZM487.456 45.3102H495.605C497.824 45.3102 499.381 46.7678 499.381 48.8878C499.381 51.2398 497.659 52.8961 495.174 52.8961H487.456V45.3102ZM487.456 55.3805H495.34C497.824 55.3805 499.845 56.7387 499.845 59.3225C499.845 61.7407 498.222 63.397 495.903 63.397H487.456V55.3805ZM523.387 65.9478V63.397H510.004V55.1155H521.763V52.6311H510.004V45.3102H523.088V42.7595H507.254V65.9478H523.387ZM528.822 65.9478L531.539 59.3225H542.271L544.988 65.9478H547.87L538.296 42.7595H535.481L525.94 65.9478H528.822ZM536.905 46.304L541.211 56.805H532.599L536.905 46.304ZM559.905 66.3121C565.868 66.3453 569.147 62.5689 569.147 58.1631V42.7595H566.364V58.0969C566.364 61.7739 563.449 63.7283 559.905 63.7283C556.36 63.7283 553.445 61.7739 553.445 58.0969V42.7595L550.663 42.7595V58.1631C550.663 62.5689 553.909 66.3121 559.905 66.3121ZM583.717 65.9478V45.3102H591.733V42.7595L572.917 42.7595V45.3102H580.934V65.9478H583.717ZM605.04 65.9478V55.7118L613.884 42.7595H610.605L603.681 53.0617L596.725 42.7595H593.445L602.257 55.7118V65.9478H605.04ZM3.98186 98.9477L6.69819 92.3225H17.431L20.1474 98.9477H23.0293L13.4559 75.7595H10.6402L1.09989 98.9477H3.98186ZM12.0646 79.304L16.371 89.805H7.75822L12.0646 79.304ZM29.5476 98.9477V89.3743H37.5641C38.6573 89.3743 39.4523 89.9043 39.8167 90.8981L42.7981 98.9477H45.7794L42.5662 90.4012C42.1355 89.2418 41.2743 88.4468 40.0486 88.1155C42.8643 87.2211 44.7194 84.9023 44.7194 82.1529C44.7194 78.3765 41.7049 75.7595 37.3323 75.7595L26.7651 75.7595L26.7651 98.9477L29.5476 98.9477ZM29.5476 78.3102H37.4648C39.9823 78.3102 41.9037 79.7015 41.9037 82.4179C41.9037 84.9023 40.3467 86.8899 37.4648 86.8899H29.5476L29.5476 78.3102ZM59.4809 99.3121C66.5036 99.3121 70.7106 94.2439 70.7106 87.2874C70.7106 80.099 66.1723 75.3951 59.4809 75.3951C52.5244 75.3951 48.3174 80.3972 48.3174 87.2874C48.3174 94.6082 52.8557 99.3121 59.4809 99.3121ZM59.4809 96.7614C54.3795 96.7614 51.1663 93.0844 51.1663 87.2874C51.1663 81.5566 54.3795 77.9458 59.4809 77.9458C64.6154 77.9458 67.8618 81.5566 67.8618 87.2874C67.8618 93.0844 64.6485 96.7614 59.4809 96.7614ZM84.3329 99.3121C90.2956 99.3453 93.5751 95.5689 93.5751 91.1631V75.7595H90.7925V91.0969C90.7925 94.7739 87.8774 96.7283 84.3329 96.7283C80.7884 96.7283 77.8733 94.7739 77.8733 91.0969V75.7595H75.0908V91.1631C75.0908 95.5689 78.3371 99.3121 84.3329 99.3121ZM101.784 98.9477V79.7347L114.902 98.9477H118.082V75.7595H115.3V94.9726L102.182 75.7595H99.0018V98.9477H101.784ZM131.899 98.9477C138.557 98.9477 143.195 94.1445 143.195 87.2211C143.195 80.4634 138.557 75.7595 131.899 75.7595H123.717V98.9477H131.899ZM126.499 78.3102H132.065C136.868 78.3102 140.247 82.2191 140.247 87.2211C140.247 92.6207 136.868 96.397 132.065 96.397H126.499V78.3102ZM164.535 98.9477V88.7118L173.379 75.7595H170.1L163.176 86.0617L156.22 75.7595H152.941L161.752 88.7118V98.9477H164.535ZM185.095 99.3121C192.117 99.3121 196.324 94.2439 196.324 87.2874C196.324 80.099 191.786 75.3951 185.095 75.3951C178.138 75.3951 173.931 80.3972 173.931 87.2874C173.931 94.6082 178.469 99.3121 185.095 99.3121ZM185.095 96.7614C179.993 96.7614 176.78 93.0844 176.78 87.2874C176.78 81.5566 179.993 77.9458 185.095 77.9458C190.229 77.9458 193.475 81.5566 193.475 87.2874C193.475 93.0844 190.262 96.7614 185.095 96.7614ZM209.947 99.3121C215.909 99.3453 219.189 95.5689 219.189 91.1631V75.7595H216.406V91.0969C216.406 94.7739 213.491 96.7283 209.947 96.7283C206.402 96.7283 203.487 94.7739 203.487 91.0969V75.7595H200.704V91.1631C200.704 95.5689 203.951 99.3121 209.947 99.3121ZM225.543 99.279C226.735 99.279 227.63 98.3846 227.63 97.1921C227.63 96.0327 226.735 95.1383 225.543 95.1383C224.35 95.1383 223.456 96.0327 223.456 97.1921C223.456 98.3846 224.35 99.279 225.543 99.279ZM13.0915 165.312C20.1142 165.312 24.3212 160.244 24.3212 153.287C24.3212 146.099 19.783 141.395 13.0915 141.395C6.13505 141.395 1.92804 146.397 1.92804 153.287C1.92804 160.608 6.46631 165.312 13.0915 165.312ZM13.0915 162.761C7.99011 162.761 4.77688 159.084 4.77688 153.287C4.77688 147.557 7.99011 143.946 13.0915 143.946C18.226 143.946 21.4724 147.557 21.4724 153.287C21.4724 159.084 18.2592 162.761 13.0915 162.761ZM31.6827 164.948V155.374H39.6992C40.7924 155.374 41.5874 155.904 41.9518 156.898L44.9331 164.948H47.9145L44.7012 156.401C44.2706 155.242 43.4093 154.447 42.1837 154.116C44.9994 153.221 46.8544 150.902 46.8544 148.153C46.8544 144.376 43.84 141.76 39.4673 141.76H28.9001V164.948H31.6827ZM31.6827 144.31H39.5998C42.1174 144.31 44.0387 145.702 44.0387 148.418C44.0387 150.902 42.4818 152.89 39.5998 152.89H31.6827V144.31ZM62.7345 164.948C66.9415 164.948 69.8566 162.364 69.8566 158.621C69.8566 155.772 67.869 153.586 64.8546 152.989C67.5709 152.128 69.3266 150.074 69.3266 147.59C69.3266 144.145 66.5109 141.76 62.4695 141.76L51.836 141.76L51.836 164.948L62.7345 164.948ZM54.5855 144.31L62.7345 144.31C64.9539 144.31 66.5109 145.768 66.5109 147.888C66.5109 150.24 64.7883 151.896 62.3038 151.896L54.5855 151.896V144.31ZM54.5855 154.381L62.4695 154.381C64.9539 154.381 66.9746 155.739 66.9746 158.323C66.9746 160.741 65.3514 162.397 63.0326 162.397L54.5855 162.397L54.5855 154.381ZM91.6626 164.948L100.408 141.76H97.4596L90.1719 161.105L82.6523 141.76H79.6709L88.6812 164.948H91.6626ZM106.669 164.948V141.76H103.887V164.948H106.669ZM121.275 165.312C126.409 165.312 129.523 162.861 129.523 158.786C129.523 154.414 125.979 153.254 123.03 152.327L119.287 151.167C117.3 150.538 114.649 150.008 114.649 147.457C114.649 145.238 116.703 143.913 119.618 143.913C123.295 143.913 125.581 145.735 125.813 149.014H128.695C128.33 144.078 125.051 141.395 119.751 141.395C114.948 141.395 111.867 143.846 111.867 147.59C111.867 152.128 116.538 153.122 118.393 153.718L122.401 154.977C124.62 155.672 126.674 156.567 126.674 158.919C126.674 161.337 124.819 162.795 121.275 162.795C117.2 162.795 114.384 160.906 114.053 157.925H111.138C111.436 162.298 115.444 165.312 121.275 165.312ZM136.528 164.948V141.76H133.745V164.948H136.528ZM152.26 165.312C159.282 165.312 163.489 160.244 163.489 153.287C163.489 146.099 158.951 141.395 152.26 141.395C145.303 141.395 141.096 146.397 141.096 153.287C141.096 160.608 145.634 165.312 152.26 165.312ZM152.26 162.761C147.158 162.761 143.945 159.084 143.945 153.287C143.945 147.557 147.158 143.946 152.26 143.946C157.394 143.946 160.641 147.557 160.641 153.287C160.641 159.084 157.427 162.761 152.26 162.761ZM170.851 164.948V145.735L183.969 164.948H187.149V141.76H184.366V160.973L171.248 141.76L168.068 141.76V164.948L170.851 164.948ZM211.122 164.948C215.329 164.948 218.244 162.364 218.244 158.621C218.244 155.772 216.257 153.586 213.242 152.989C215.959 152.128 217.714 150.074 217.714 147.59C217.714 144.145 214.899 141.76 210.857 141.76H200.224V164.948H211.122ZM202.973 144.31H211.122C213.342 144.31 214.899 145.768 214.899 147.888C214.899 150.24 213.176 151.896 210.692 151.896H202.973V144.31ZM202.973 154.381H210.857C213.342 154.381 215.362 155.739 215.362 158.323C215.362 160.741 213.739 162.397 211.42 162.397H202.973V154.381ZM238.904 164.948V162.397H225.521V154.116H237.281V151.631H225.521V144.31H238.606V141.76H222.771V164.948H238.904ZM258.551 164.948V162.397H246.128V141.76H243.346V164.948H258.551ZM265.474 164.948V141.76H262.691V164.948H265.474ZM287.234 164.948V162.397L273.851 162.397V154.116L285.611 154.116V151.631L273.851 151.631V144.31L286.936 144.31V141.76L271.102 141.76V164.948L287.234 164.948ZM301.515 164.948L310.26 141.76H307.312L300.024 161.105L292.504 141.76H289.523L298.533 164.948H301.515ZM329.871 164.948V162.397H316.488V154.116H328.248V151.631H316.488V144.31H329.573V141.76H313.739V164.948H329.871ZM343.29 165.312C348.425 165.312 351.539 162.861 351.539 158.786C351.539 154.414 347.994 153.254 345.046 152.327L341.303 151.167C339.315 150.538 336.665 150.008 336.665 147.457C336.665 145.238 338.719 143.913 341.634 143.913C345.311 143.913 347.597 145.735 347.828 149.014H350.71C350.346 144.078 347.067 141.395 341.766 141.395C336.963 141.395 333.882 143.846 333.882 147.59C333.882 152.128 338.553 153.122 340.408 153.718L344.416 154.977C346.636 155.672 348.69 156.567 348.69 158.919C348.69 161.337 346.835 162.795 343.29 162.795C339.216 162.795 336.4 160.906 336.069 157.925H333.154C333.452 162.298 337.46 165.312 343.29 165.312ZM372.344 164.948V144.31H380.361V141.76H361.545V144.31H369.561V164.948H372.344ZM387.108 164.948V154.281L401.352 154.281V164.948H404.135V141.76H401.352V151.73L387.108 151.73V141.76H384.326V164.948H387.108ZM410.746 164.948L413.462 158.323H424.195L426.912 164.948H429.794L420.22 141.76H417.404L407.864 164.948H410.746ZM418.829 145.304L423.135 155.805H414.523L418.829 145.304ZM439.372 164.948V144.31H447.389V141.76H428.573V144.31H436.59V164.948H439.372ZM474.927 164.948V162.397H461.544V154.116H473.304V151.631H461.544V144.31H474.629V141.76H458.794V164.948H474.927ZM482.151 164.948V145.735L495.269 164.948H498.449V141.76H495.667V160.973L482.549 141.76H479.369V164.948H482.151ZM513.922 164.948L522.668 141.76H519.719L512.432 161.105L504.912 141.76H501.931L510.941 164.948H513.922ZM528.929 164.948V141.76H526.146V164.948H528.929ZM537.34 164.948V155.374H545.356C546.45 155.374 547.245 155.904 547.609 156.898L550.59 164.948H553.572L550.358 156.401C549.928 155.242 549.066 154.447 547.841 154.116C550.657 153.221 552.512 150.902 552.512 148.153C552.512 144.376 549.497 141.76 545.124 141.76H534.557V164.948H537.34ZM537.34 144.31H545.257C547.775 144.31 549.696 145.702 549.696 148.418C549.696 150.902 548.139 152.89 545.257 152.89H537.34V144.31ZM567.273 165.312C574.296 165.312 578.503 160.244 578.503 153.287C578.503 146.099 573.965 141.395 567.273 141.395C560.317 141.395 556.11 146.397 556.11 153.287C556.11 160.608 560.648 165.312 567.273 165.312ZM567.273 162.761C562.172 162.761 558.958 159.084 558.958 153.287C558.958 147.557 562.172 143.946 567.273 143.946C572.408 143.946 575.654 147.557 575.654 153.287C575.654 159.084 572.441 162.761 567.273 162.761ZM585.864 164.948V145.735L598.982 164.948H602.162V141.76H599.38V160.973L586.262 141.76H583.082V164.948H585.864ZM610.579 164.948V146.662L618.099 164.948H620.782L628.335 146.596V164.948H631.118V141.76H627.606L619.457 161.635L611.275 141.76H607.797V164.948H610.579ZM652.882 164.948V162.397H639.499V154.116H651.259V151.631H639.499V144.31H652.584V141.76H636.75V164.948H652.882ZM660.107 164.948V145.735L673.225 164.948H676.405V141.76H673.622V160.973L660.504 141.76H657.324V164.948H660.107ZM691.182 164.948V144.31H699.198V141.76H680.383V144.31H688.399V164.948H691.182ZM700.858 164.948L703.574 158.323H714.307L717.023 164.948H719.905L710.332 141.76H707.516L697.976 164.948H700.858ZM708.94 145.304L713.247 155.805H704.634L708.94 145.304ZM738.846 164.948V162.397L726.423 162.397V141.76H723.641V164.948L738.846 164.948ZM21.8037 201.227L19.2198 196.689C22.4993 194.668 24.3212 190.892 24.3212 186.287C24.3212 179.099 19.783 174.395 13.0915 174.395C6.13505 174.395 1.92804 179.397 1.92804 186.287C1.92804 193.608 6.46631 198.312 13.0915 198.312C14.5159 198.312 15.841 198.113 17.0335 197.716L19.6836 202.32L21.8037 201.227ZM13.0915 195.761C7.99011 195.761 4.77688 192.084 4.77688 186.287C4.77688 180.557 7.99011 176.946 13.0915 176.946C18.226 176.946 21.4724 180.557 21.4724 186.287C21.4724 189.964 20.1805 192.813 17.8948 194.37L14.3834 188.242L12.2302 189.335L15.7085 195.397C14.9134 195.629 14.019 195.761 13.0915 195.761ZM37.9435 198.312C43.9062 198.345 47.1857 194.569 47.1857 190.163V174.76H44.4031V190.097C44.4031 193.774 41.488 195.728 37.9435 195.728C34.3991 195.728 31.484 193.774 31.484 190.097L31.484 174.76H28.7014L28.7014 190.163C28.7014 194.569 31.9477 198.312 37.9435 198.312ZM52.8622 197.948L55.5785 191.323L66.3113 191.323L69.0277 197.948H71.9096L62.3362 174.76H59.5205L49.9802 197.948H52.8622ZM60.9449 178.304L65.2513 188.805L56.6385 188.805L60.9449 178.304ZM90.8502 197.948V195.397H78.4279V174.76H75.6454V197.948H90.8502ZM97.773 197.948V174.76H94.9904V197.948H97.773ZM112.544 197.948V177.31H120.561V174.76H101.745V177.31H109.762V197.948H112.544ZM133.867 197.948V187.712L142.712 174.76H139.432L132.509 185.062L125.553 174.76H122.273L131.085 187.712V197.948H133.867ZM161.725 197.948C168.384 197.948 173.021 193.144 173.021 186.221C173.021 179.463 168.384 174.76 161.725 174.76H153.543V197.948H161.725ZM156.326 177.31H161.891C166.694 177.31 170.073 181.219 170.073 186.221C170.073 191.621 166.694 195.397 161.891 195.397H156.326V177.31ZM180.362 197.948V174.76H177.579V197.948H180.362ZM188.773 197.948V188.374H196.789C197.882 188.374 198.677 188.904 199.042 189.898L202.023 197.948H205.004L201.791 189.401C201.36 188.242 200.499 187.447 199.273 187.116C202.089 186.221 203.944 183.902 203.944 181.153C203.944 177.376 200.93 174.76 196.557 174.76H185.99V197.948H188.773ZM188.773 177.31H196.69C199.207 177.31 201.129 178.702 201.129 181.418C201.129 183.902 199.572 185.89 196.69 185.89H188.773V177.31ZM225.058 197.948V195.397H211.675V187.116H223.435V184.631H211.675V177.31H224.76V174.76H208.926V197.948H225.058ZM239.769 198.312C245.831 198.312 249.674 195.066 250.701 189.037H247.819C246.924 193.409 244.109 195.761 239.769 195.761C234.568 195.761 231.355 192.217 231.355 186.287C231.355 180.557 234.568 176.946 239.769 176.946C243.976 176.946 246.958 179.43 247.819 183.67H250.701C249.707 177.84 245.666 174.395 239.769 174.395C232.647 174.395 228.44 179.397 228.44 186.287C228.44 193.31 232.647 198.312 239.769 198.312ZM263.067 197.948V177.31H271.083V174.76H252.268V177.31H260.284V197.948H263.067ZM290.253 197.948V195.397L277.831 195.397V174.76H275.048V197.948L290.253 197.948ZM299.594 197.948V187.712L308.439 174.76H305.16L298.236 185.062L291.28 174.76H288L296.812 187.712V197.948H299.594ZM320.264 197.948L322.981 191.323H333.713L336.43 197.948H339.312L329.738 174.76H326.923L317.382 197.948H320.264ZM328.347 178.304L332.653 188.805H324.041L328.347 178.304ZM345.83 197.948V187.381H357.855V184.83H345.83V177.31H358.849V174.76H343.047V197.948H345.83ZM365.822 197.948V187.381H377.847V184.83H365.822V177.31H378.841V174.76H363.039V197.948H365.822ZM399.164 197.948V195.397L385.781 195.397V187.116L397.541 187.116V184.631L385.781 184.631V177.31L398.866 177.31V174.76L383.032 174.76V197.948L399.164 197.948ZM413.875 198.312C419.937 198.312 423.78 195.066 424.807 189.037H421.925C421.03 193.409 418.215 195.761 413.875 195.761C408.674 195.761 405.461 192.217 405.461 186.287C405.461 180.557 408.674 176.946 413.875 176.946C418.082 176.946 421.063 179.43 421.925 183.67H424.807C423.813 177.84 419.771 174.395 413.875 174.395C406.753 174.395 402.546 179.397 402.546 186.287C402.546 193.31 406.753 198.312 413.875 198.312ZM437.173 197.948V177.31H445.189V174.76H426.374V177.31H434.39V197.948H437.173ZM457.581 198.312C462.716 198.312 465.83 195.861 465.83 191.786C465.83 187.414 462.285 186.254 459.337 185.327L455.594 184.167C453.606 183.538 450.956 183.008 450.956 180.457C450.956 178.238 453.01 176.913 455.925 176.913C459.602 176.913 461.888 178.735 462.12 182.014H465.002C464.637 177.078 461.358 174.395 456.058 174.395C451.254 174.395 448.174 176.846 448.174 180.59C448.174 185.128 452.844 186.122 454.699 186.718L458.708 187.977C460.927 188.672 462.981 189.567 462.981 191.919C462.981 194.337 461.126 195.795 457.581 195.795C453.507 195.795 450.691 193.906 450.36 190.925H447.445C447.743 195.298 451.751 198.312 457.581 198.312ZM486.635 197.948V177.31H494.652V174.76H475.836V177.31H483.853V197.948H486.635ZM501.399 197.948V187.281L515.644 187.281V197.948H518.426V174.76H515.644V184.73L501.399 184.73V174.76H498.617V197.948H501.399ZM540.176 197.948V195.397H526.793V187.116H538.553V184.631H526.793V177.31H539.878V174.76H524.044V197.948H540.176ZM570.874 201.227L568.29 196.689C571.57 194.668 573.392 190.892 573.392 186.287C573.392 179.099 568.853 174.395 562.162 174.395C555.205 174.395 550.998 179.397 550.998 186.287C550.998 193.608 555.537 198.312 562.162 198.312C563.586 198.312 564.911 198.113 566.104 197.716L568.754 202.32L570.874 201.227ZM562.162 195.761C557.06 195.761 553.847 192.084 553.847 186.287C553.847 180.557 557.06 176.946 562.162 176.946C567.296 176.946 570.543 180.557 570.543 186.287C570.543 189.964 569.251 192.813 566.965 194.37L563.454 188.242L561.301 189.335L564.779 195.397C563.984 195.629 563.089 195.761 562.162 195.761ZM587.014 198.312C592.977 198.345 596.256 194.569 596.256 190.163V174.76H593.473V190.097C593.473 193.774 590.558 195.728 587.014 195.728C583.469 195.728 580.554 193.774 580.554 190.097V174.76H577.772V190.163C577.772 194.569 581.018 198.312 587.014 198.312ZM601.932 197.948L604.649 191.323H615.382L618.098 197.948H620.98L611.406 174.76H608.591L599.05 197.948H601.932ZM610.015 178.304L614.322 188.805H605.709L610.015 178.304ZM639.921 197.948V195.397H627.498V174.76H624.716V197.948H639.921ZM646.843 197.948V174.76H644.061V197.948H646.843ZM661.614 197.948V177.31H669.631V174.76H650.815V177.31H658.832V197.948H661.614ZM682.937 197.948V187.712L691.782 174.76H688.503L681.579 185.062L674.623 174.76H671.343L680.155 187.712V197.948H682.937ZM13.0915 231.312C20.1142 231.312 24.3212 226.244 24.3212 219.287C24.3212 212.099 19.783 207.395 13.0915 207.395C6.13505 207.395 1.92804 212.397 1.92804 219.287C1.92804 226.608 6.46631 231.312 13.0915 231.312ZM13.0915 228.761C7.99011 228.761 4.77688 225.084 4.77688 219.287C4.77688 213.557 7.99011 209.946 13.0915 209.946C18.226 209.946 21.4724 213.557 21.4724 219.287C21.4724 225.084 18.2592 228.761 13.0915 228.761ZM31.6827 230.948V220.381H43.7075V217.83H31.6827V210.31H44.7012V207.76H28.9001V230.948H31.6827ZM71.5375 230.948V228.397H59.1152V207.76L56.3326 207.76V230.948L71.5375 230.948ZM78.4603 230.948V207.76H75.6777V230.948H78.4603ZM86.8712 230.948V220.381H98.8959V217.83H86.8712V210.31H99.8897V207.76H84.0886V230.948H86.8712ZM120.213 230.948V228.397H106.83V220.116H118.59V217.631H106.83V210.31H119.915V207.76H104.081V230.948H120.213ZM128.564 225.946L126.212 225.217L122.734 236.314L124.953 237.01L128.564 225.946ZM148.624 230.948C155.282 230.948 159.92 226.144 159.92 219.221C159.92 212.463 155.282 207.76 148.624 207.76H140.442L140.442 230.948H148.624ZM143.224 210.31H148.789C153.593 210.31 156.972 214.219 156.972 219.221C156.972 224.621 153.593 228.397 148.789 228.397H143.224V210.31ZM180.61 230.948V228.397L167.227 228.397V220.116L178.987 220.116V217.631L167.227 217.631V210.31L180.312 210.31L180.312 207.76L164.477 207.76L164.477 230.948L180.61 230.948ZM194.89 230.948L203.636 207.76H200.687L193.4 227.105L185.88 207.76H182.899L191.909 230.948H194.89ZM223.247 230.948V228.397H209.864V220.116H221.623V217.631H209.864V210.31H222.948L222.948 207.76H207.114L207.114 230.948H223.247ZM242.893 230.948V228.397H230.471L230.471 207.76H227.689L227.689 230.948H242.893ZM255.487 231.312C262.51 231.312 266.717 226.244 266.717 219.287C266.717 212.099 262.179 207.395 255.487 207.395C248.531 207.395 244.324 212.397 244.324 219.287C244.324 226.608 248.862 231.312 255.487 231.312ZM255.487 228.761C250.386 228.761 247.173 225.084 247.173 219.287C247.173 213.557 250.386 209.946 255.487 209.946C260.622 209.946 263.868 213.557 263.868 219.287C263.868 225.084 260.655 228.761 255.487 228.761ZM274.079 230.948V221.772H282.261C286.368 221.772 289.681 219.254 289.681 214.55C289.681 210.84 287.097 207.76 282.261 207.76H271.296V230.948H274.079ZM274.079 210.31H282.393C284.844 210.31 286.832 211.801 286.832 214.55C286.832 217.134 285.275 219.221 282.393 219.221H274.079V210.31ZM296.594 230.948V212.662L304.113 230.948H306.797L314.349 212.596V230.948H317.132V207.76H313.621L305.472 227.635L297.29 207.76H293.811V230.948H296.594ZM338.897 230.948V228.397H325.514V220.116H337.273V217.631H325.514V210.31H338.598V207.76H322.764V230.948H338.897ZM346.121 230.948V211.735L359.239 230.948H362.419V207.76H359.637V226.973L346.519 207.76H343.339V230.948H346.121ZM377.196 230.948V210.31H385.213V207.76H366.397V210.31H374.414V230.948H377.196ZM397.612 230.948L400.329 224.323H411.061L413.778 230.948H416.66L407.086 207.76H404.271L394.73 230.948L397.612 230.948ZM405.695 211.304L410.001 221.805H401.389L405.695 211.304ZM423.178 230.948V211.735L436.296 230.948H439.476V207.76H436.693V226.973L423.575 207.76H420.395V230.948H423.178ZM453.293 230.948C459.951 230.948 464.589 226.144 464.589 219.221C464.589 212.463 459.951 207.76 453.293 207.76H445.111V230.948H453.293ZM447.893 210.31H453.458C458.262 210.31 461.64 214.219 461.64 219.221C461.64 224.621 458.262 228.397 453.458 228.397H447.893V210.31ZM492.719 230.948V228.397H479.336V220.116H491.096V217.631H479.336V210.31H492.421V207.76H476.587V230.948H492.719ZM499.944 230.948V211.735L513.062 230.948H516.242V207.76H513.459V226.973L500.341 207.76H497.161V230.948H499.944ZM538.009 230.948V228.397H524.626V220.116H536.385V217.631H524.626V210.31H537.71V207.76H521.876V230.948H538.009ZM545.233 230.948V221.374H553.25C554.343 221.374 555.138 221.904 555.502 222.898L558.484 230.948H561.465L558.252 222.401C557.821 221.242 556.96 220.447 555.734 220.116C558.55 219.221 560.405 216.902 560.405 214.153C560.405 210.376 557.39 207.76 553.018 207.76H542.451V230.948H545.233ZM545.233 210.31H553.15C555.668 210.31 557.589 211.702 557.589 214.418C557.589 216.902 556.032 218.89 553.15 218.89H545.233V210.31ZM574.968 231.312C580.102 231.312 583.117 228.132 583.547 223.031H583.614V230.948H586.098V222.699C586.098 220.447 584.806 219.221 582.388 219.221H574.239V221.606H582.057C582.057 225.813 579.307 228.761 574.968 228.761C570.197 228.761 566.918 225.151 566.918 219.287C566.918 213.49 570.131 209.946 575.266 209.946C579.506 209.946 582.454 212.43 583.315 216.67H586.197C585.237 210.973 581.162 207.395 575.266 207.395C568.21 207.395 564.003 212.397 564.003 219.287C564.003 226.608 568.574 231.312 574.968 231.312ZM599.055 230.948V220.712L607.9 207.76H604.62L597.697 218.062L590.74 207.76H587.461L596.272 220.712V230.948H599.055ZM628.834 231.312C635.857 231.312 640.064 226.244 640.064 219.287C640.064 212.099 635.526 207.395 628.834 207.395C621.878 207.395 617.671 212.397 617.671 219.287C617.671 226.608 622.209 231.312 628.834 231.312ZM628.834 228.761C623.733 228.761 620.52 225.084 620.52 219.287C620.52 213.557 623.733 209.946 628.834 209.946C633.969 209.946 637.215 213.557 637.215 219.287C637.215 225.084 634.002 228.761 628.834 228.761ZM647.426 230.948V220.381H659.45V217.83H647.426V210.31H660.444V207.76H644.643V230.948H647.426ZM11.9652 264.312C17.0998 264.312 20.2136 261.861 20.2136 257.786C20.2136 253.414 16.6691 252.254 13.7209 251.327L9.97767 250.167C7.99011 249.538 5.34002 249.008 5.34002 246.457C5.34002 244.238 7.39384 242.913 10.3089 242.913C13.9859 242.913 16.2716 244.735 16.5035 248.014H19.3855C19.0211 243.078 15.7416 240.395 10.4414 240.395C5.63816 240.395 2.55744 242.846 2.55744 246.59C2.55744 251.128 7.22821 252.122 9.08326 252.718L13.0915 253.977C15.311 254.672 17.3648 255.567 17.3648 257.919C17.3648 260.337 15.5097 261.795 11.9652 261.795C7.89073 261.795 5.07501 259.906 4.74375 256.925H1.82866C2.1268 261.298 6.13505 264.312 11.9652 264.312ZM34.5393 264.312C41.562 264.312 45.769 259.244 45.769 252.287C45.769 245.099 41.2308 240.395 34.5393 240.395C27.5829 240.395 23.3758 245.397 23.3758 252.287C23.3758 259.608 27.9141 264.312 34.5393 264.312ZM34.5393 261.761C29.4379 261.761 26.2247 258.084 26.2247 252.287C26.2247 246.557 29.4379 242.946 34.5393 242.946C39.6739 242.946 42.9202 246.557 42.9202 252.287C42.9202 258.084 39.707 261.761 34.5393 261.761ZM60.617 264.312C66.6791 264.312 70.5217 261.066 71.5486 255.037H68.6666C67.7722 259.409 64.9565 261.761 60.617 261.761C55.4162 261.761 52.203 258.217 52.203 252.287C52.203 246.557 55.4162 242.946 60.617 242.946C64.824 242.946 67.8054 245.43 68.6666 249.67H71.5486C70.5548 243.84 66.5134 240.395 60.617 240.395C53.4949 240.395 49.2879 245.397 49.2879 252.287C49.2879 259.31 53.4949 264.312 60.617 264.312ZM78.9132 263.948V240.76H76.1306V263.948H78.9132ZM100.674 263.948V261.397H87.291V253.116H99.0507V250.631H87.291V243.31H100.376V240.76H84.5415V263.948H100.674ZM114.259 263.948V243.31H122.275V240.76H103.46V243.31H111.476V263.948L114.259 263.948ZM135.582 263.948V253.712L144.426 240.76H141.147L134.224 251.062L127.267 240.76H123.988L132.799 253.712V263.948H135.582ZM145.251 264.279C146.444 264.279 147.338 263.385 147.338 262.192C147.338 261.033 146.444 260.138 145.251 260.138C144.059 260.138 143.164 261.033 143.164 262.192C143.164 263.385 144.059 264.279 145.251 264.279ZM10.5077 329.948L15.8078 311.066L21.1743 329.948H24.2881L30.8471 306.76H27.9651L22.5987 325.84L17.166 306.76H14.4497L9.08326 325.774L3.71685 306.76H0.834884L7.39384 329.948H10.5077ZM50.4672 329.948V327.397H37.0843V319.116H48.8441V316.631H37.0843V309.31H50.1691V306.76H34.3349V329.948H50.4672ZM77.5545 329.948V327.397H65.1322L65.1322 306.76H62.3497V329.948H77.5545ZM90.1483 330.312C97.1711 330.312 101.378 325.244 101.378 318.287C101.378 311.099 96.8398 306.395 90.1483 306.395C83.1919 306.395 78.9849 311.397 78.9849 318.287C78.9849 325.608 83.5231 330.312 90.1483 330.312ZM90.1483 327.761C85.0469 327.761 81.8337 324.084 81.8337 318.287C81.8337 312.557 85.0469 308.946 90.1483 308.946C95.2829 308.946 98.5292 312.557 98.5292 318.287C98.5292 324.084 95.316 327.761 90.1483 327.761ZM116.226 330.312C122.288 330.312 126.131 327.066 127.158 321.037H124.276C123.381 325.409 120.566 327.761 116.226 327.761C111.025 327.761 107.812 324.217 107.812 318.287C107.812 312.557 111.025 308.946 116.226 308.946C120.433 308.946 123.414 311.43 124.276 315.67H127.158C126.164 309.84 122.122 306.395 116.226 306.395C109.104 306.395 104.897 311.397 104.897 318.287C104.897 325.31 109.104 330.312 116.226 330.312ZM131.504 329.948L134.22 323.323H144.953L147.67 329.948H150.552L140.978 306.76H138.162L128.622 329.948H131.504ZM139.587 310.304L143.893 320.805H135.28L139.587 310.304ZM160.13 329.948V309.31H168.147V306.76H149.331V309.31H157.348V329.948H160.13ZM188.244 329.948V327.397H174.861V319.116H186.621V316.631H174.861V309.31H187.946V306.76H172.112V329.948H188.244ZM200.868 329.948C207.527 329.948 212.164 325.144 212.164 318.221C212.164 311.463 207.527 306.76 200.868 306.76H192.686V329.948H200.868ZM195.469 309.31H201.034C205.837 309.31 209.216 313.219 209.216 318.221C209.216 323.621 205.837 327.397 201.034 327.397H195.469V309.31ZM226.945 329.948V306.76H224.163V329.948H226.945ZM235.356 329.948V310.735L248.474 329.948H251.654V306.76H248.871V325.973L235.754 306.76H232.573V329.948H235.356ZM267.512 329.948V323.058L271.917 318.453L280.265 329.948H283.71L273.839 316.432L283.081 306.76H279.47L267.512 319.447V306.76H264.729V329.948H267.512ZM296.553 329.948V319.712L305.398 306.76H302.119L295.195 317.062L288.239 306.76H284.959L293.771 319.712V329.948H296.553ZM311.572 329.948V306.76H308.789V329.948H311.572ZM327.038 329.948L335.784 306.76H332.836L325.548 326.105L318.028 306.76H315.047L324.057 329.948H327.038ZM340.519 324.946L338.167 324.217L334.689 335.314L336.908 336.01L340.519 324.946ZM361.44 330.312C367.403 330.345 370.682 326.569 370.682 322.163V306.76H367.899V322.097C367.899 325.774 364.984 327.728 361.44 327.728C357.895 327.728 354.98 325.774 354.98 322.097V306.76H352.198V322.163C352.198 326.569 355.444 330.312 361.44 330.312ZM378.891 329.948V323.058L383.297 318.453L391.645 329.948H395.09L385.218 316.432L394.461 306.76H390.85L378.891 319.447V306.76H376.109V329.948H378.891ZM401.374 329.948V320.374H409.391C410.484 320.374 411.279 320.904 411.643 321.898L414.625 329.948H417.606L414.393 321.401C413.962 320.242 413.101 319.447 411.875 319.116C414.691 318.221 416.546 315.902 416.546 313.153C416.546 309.376 413.532 306.76 409.159 306.76H398.592V329.948H401.374ZM401.374 309.31H409.291C411.809 309.31 413.73 310.702 413.73 313.418C413.73 315.902 412.173 317.89 409.291 317.89H401.374V309.31ZM422.521 329.948L425.238 323.323H435.971L438.687 329.948H441.569L431.995 306.76H429.18L419.639 329.948H422.521ZM430.604 310.304L434.911 320.805H426.298L430.604 310.304ZM448.087 329.948V306.76H445.305V329.948H448.087ZM456.498 329.948V310.735L469.616 329.948H472.796V306.76H470.014V325.973L456.896 306.76H453.715V329.948H456.498ZM494.563 329.948V327.397H481.18V319.116H492.94V316.631H481.18V309.31H494.265V306.76H478.431V329.948H494.563ZM517.344 329.948C521.551 329.948 524.466 327.364 524.466 323.621C524.466 320.772 522.478 318.586 519.464 317.989C522.18 317.128 523.936 315.074 523.936 312.59C523.936 309.145 521.12 306.76 517.079 306.76H506.445V329.948H517.344ZM509.195 309.31H517.344C519.563 309.31 521.12 310.768 521.12 312.888C521.12 315.24 519.398 316.896 516.913 316.896H509.195V309.31ZM509.195 319.381H517.079C519.563 319.381 521.584 320.739 521.584 323.323C521.584 325.741 519.961 327.397 517.642 327.397H509.195V319.381ZM538.037 330.312C543.999 330.345 547.279 326.569 547.279 322.163V306.76H544.496V322.097C544.496 325.774 541.581 327.728 538.037 327.728C534.492 327.728 531.577 325.774 531.577 322.097V306.76H528.794V322.163C528.794 326.569 532.041 330.312 538.037 330.312ZM561.848 329.948V309.31L569.865 309.31V306.76L551.049 306.76V309.31H559.066V329.948H561.848ZM588.79 329.948L594.09 311.066L599.456 329.948H602.57L609.129 306.76H606.247L600.881 325.84L595.448 306.76H592.732L587.365 325.774L581.999 306.76H579.117L585.676 329.948H588.79ZM622.397 330.312C629.42 330.312 633.627 325.244 633.627 318.287C633.627 311.099 629.088 306.395 622.397 306.395C615.44 306.395 611.233 311.397 611.233 318.287C611.233 325.608 615.772 330.312 622.397 330.312ZM622.397 327.761C617.295 327.761 614.082 324.084 614.082 318.287C614.082 312.557 617.295 308.946 622.397 308.946C627.531 308.946 630.778 312.557 630.778 318.287C630.778 324.084 627.564 327.761 622.397 327.761ZM640.988 329.948V320.374H649.005C650.098 320.374 650.893 320.904 651.257 321.898L654.238 329.948H657.22L654.007 321.401C653.576 320.242 652.715 319.447 651.489 319.116C654.305 318.221 656.16 315.902 656.16 313.153C656.16 309.376 653.145 306.76 648.773 306.76H638.205V329.948H640.988ZM640.988 309.31H648.905C651.423 309.31 653.344 310.702 653.344 313.418C653.344 315.902 651.787 317.89 648.905 317.89H640.988V309.31ZM663.924 329.948V323.058L668.33 318.453L676.677 329.948H680.123L670.251 316.432L679.493 306.76H675.882L663.924 319.447V306.76H661.141V329.948H663.924ZM686.407 329.948V306.76H683.624V329.948H686.407ZM694.818 329.948V310.735L707.936 329.948H711.116V306.76H708.333V325.973L695.215 306.76H692.035V329.948H694.818ZM726.655 330.312C731.79 330.312 734.804 327.132 735.235 322.031H735.301V329.948H737.785V321.699C737.785 319.447 736.493 318.221 734.075 318.221H725.926V320.606H733.744C733.744 324.813 730.995 327.761 726.655 327.761C721.885 327.761 718.605 324.151 718.605 318.287C718.605 312.49 721.819 308.946 726.953 308.946C731.193 308.946 734.142 311.43 735.003 315.67H737.885C736.924 309.973 732.85 306.395 726.953 306.395C719.897 306.395 715.69 311.397 715.69 318.287C715.69 325.608 720.262 330.312 726.655 330.312ZM10.5077 362.948L15.8078 344.066L21.1743 362.948H24.2881L30.8471 339.76H27.9651L22.5987 358.84L17.166 339.76H14.4497L9.08326 358.774L3.71685 339.76H0.834884L7.39384 362.948H10.5077ZM44.1148 363.312C51.1375 363.312 55.3445 358.244 55.3445 351.287C55.3445 344.099 50.8063 339.395 44.1148 339.395C37.1583 339.395 32.9513 344.397 32.9513 351.287C32.9513 358.608 37.4896 363.312 44.1148 363.312ZM44.1148 360.761C39.0134 360.761 35.8002 357.084 35.8002 351.287C35.8002 345.557 39.0134 341.946 44.1148 341.946C49.2493 341.946 52.4957 345.557 52.4957 351.287C52.4957 357.084 49.2825 360.761 44.1148 360.761ZM62.706 362.948L62.706 353.374H70.7225C71.8157 353.374 72.6107 353.904 72.9751 354.898L75.9564 362.948H78.9378L75.7245 354.401C75.2939 353.242 74.4326 352.447 73.207 352.116C76.0227 351.221 77.8777 348.902 77.8777 346.153C77.8777 342.376 74.8633 339.76 70.4906 339.76H59.9234L59.9234 362.948H62.706ZM62.706 342.31H70.6231C73.1407 342.31 75.062 343.702 75.062 346.418C75.062 348.902 73.5051 350.89 70.6231 350.89H62.706V342.31ZM98.0642 362.948V360.397H85.6419V339.76H82.8593V362.948H98.0642ZM110.387 362.948C117.045 362.948 121.683 358.144 121.683 351.221C121.683 344.463 117.045 339.76 110.387 339.76H102.204V362.948H110.387ZM104.987 342.31H110.552C115.355 342.31 118.734 346.219 118.734 351.221C118.734 356.621 115.355 360.397 110.552 360.397H104.987V342.31ZM133.436 362.948L138.736 344.066L144.103 362.948H147.217L153.776 339.76H150.894L145.527 358.84L140.095 339.76H137.378L132.012 358.774L126.645 339.76H123.763L130.322 362.948H133.436ZM160.046 362.948V339.76H157.263V362.948H160.046ZM173.857 362.948C180.515 362.948 185.152 358.144 185.152 351.221C185.152 344.463 180.515 339.76 173.857 339.76H165.674V362.948H173.857ZM168.457 342.31H174.022C178.825 342.31 182.204 346.219 182.204 351.221C182.204 356.621 178.825 360.397 174.022 360.397H168.457V342.31ZM205.843 362.948V360.397H192.46V352.116H204.219V349.631H192.46V342.31H205.544V339.76H189.71V362.948H205.843ZM225.245 362.948L230.545 344.066L235.911 362.948H239.025L245.584 339.76H242.702L237.336 358.84L231.903 339.76H229.187L223.82 358.774L218.454 339.76H215.572L222.131 362.948H225.245ZM251.854 362.948V352.281H266.099V362.948H268.881V339.76H266.099V349.73H251.854V339.76H249.072V362.948H251.854ZM277.281 362.948V339.76H274.499V362.948H277.281ZM292.052 362.948V342.31H300.069V339.76H281.253V342.31H289.27V362.948H292.052ZM306.816 362.948V352.281H321.061V362.948H323.843V339.76H321.061V349.73H306.816V339.76H304.034V362.948H306.816ZM347.004 363.312C354.027 363.312 358.234 358.244 358.234 351.287C358.234 344.099 353.696 339.395 347.004 339.395C340.048 339.395 335.841 344.397 335.841 351.287C335.841 358.608 340.379 363.312 347.004 363.312ZM347.004 360.761C341.903 360.761 338.69 357.084 338.69 351.287C338.69 345.557 341.903 341.946 347.004 341.946C352.139 341.946 355.385 345.557 355.385 351.287C355.385 357.084 352.172 360.761 347.004 360.761ZM371.856 363.312C377.819 363.345 381.099 359.569 381.099 355.163V339.76H378.316V355.097C378.316 358.774 375.401 360.728 371.856 360.728C368.312 360.728 365.397 358.774 365.397 355.097V339.76H362.614V355.163C362.614 359.569 365.861 363.312 371.856 363.312ZM389.308 362.948V353.374H397.324C398.418 353.374 399.213 353.904 399.577 354.898L402.558 362.948H405.54L402.326 354.401C401.896 353.242 401.035 352.447 399.809 352.116C402.625 351.221 404.48 348.902 404.48 346.153C404.48 342.376 401.465 339.76 397.093 339.76H386.525V362.948H389.308ZM389.308 342.31H397.225C399.743 342.31 401.664 343.702 401.664 346.418C401.664 348.902 400.107 350.89 397.225 350.89H389.308V342.31ZM427.171 363.312C433.233 363.312 437.075 360.066 438.102 354.037H435.22C434.326 358.409 431.51 360.761 427.171 360.761C421.97 360.761 418.757 357.217 418.757 351.287C418.757 345.557 421.97 341.946 427.171 341.946C431.378 341.946 434.359 344.43 435.22 348.67H438.102C437.109 342.84 433.067 339.395 427.171 339.395C420.049 339.395 415.842 344.397 415.842 351.287C415.842 358.31 420.049 363.312 427.171 363.312ZM457.889 362.948V360.397H445.467V339.76H442.684V362.948H457.889ZM464.812 362.948V339.76H462.029V362.948H464.812ZM486.573 362.948V360.397H473.19V352.116H484.949V349.631H473.19V342.31H486.274V339.76H470.44V362.948H486.573ZM493.797 362.948V343.735L506.915 362.948H510.095V339.76H507.313V358.973L494.195 339.76H491.015V362.948H493.797ZM524.873 362.948V342.31H532.889V339.76H514.073V342.31H522.09V362.948H524.873ZM545.281 363.312C550.416 363.312 553.53 360.861 553.53 356.786C553.53 352.414 549.985 351.254 547.037 350.327L543.294 349.167C541.306 348.538 538.656 348.008 538.656 345.457C538.656 343.238 540.71 341.913 543.625 341.913C547.302 341.913 549.588 343.735 549.82 347.014H552.702C552.337 342.078 549.058 339.395 543.758 339.395C538.954 339.395 535.874 341.846 535.874 345.59C535.874 350.128 540.544 351.122 542.399 351.718L546.408 352.977C548.627 353.672 550.681 354.567 550.681 356.919C550.681 359.337 548.826 360.795 545.281 360.795C541.207 360.795 538.391 358.906 538.06 355.925H535.145C535.443 360.298 539.451 363.312 545.281 363.312ZM567.975 362.948V352.381H580V349.83H567.975V342.31H580.993V339.76L565.192 339.76V362.948L567.975 362.948ZM587.967 362.948V353.374H595.983C597.077 353.374 597.872 353.904 598.236 354.898L601.217 362.948H604.199L600.986 354.401C600.555 353.242 599.694 352.447 598.468 352.116C601.284 351.221 603.139 348.902 603.139 346.153C603.139 342.376 600.124 339.76 595.752 339.76H585.184V362.948H587.967ZM587.967 342.31H595.884C598.402 342.31 600.323 343.702 600.323 346.418C600.323 348.902 598.766 350.89 595.884 350.89H587.967V342.31ZM617.9 363.312C624.923 363.312 629.13 358.244 629.13 351.287C629.13 344.099 624.592 339.395 617.9 339.395C610.944 339.395 606.737 344.397 606.737 351.287C606.737 358.608 611.275 363.312 617.9 363.312ZM617.9 360.761C612.799 360.761 609.586 357.084 609.586 351.287C609.586 345.557 612.799 341.946 617.9 341.946C623.035 341.946 626.281 345.557 626.281 351.287C626.281 357.084 623.068 360.761 617.9 360.761ZM636.491 362.948V344.662L644.011 362.948H646.694L654.247 344.596V362.948H657.03V339.76H653.518L645.369 359.635L637.187 339.76H633.709V362.948H636.491ZM671.096 362.948L673.812 356.323H684.545L687.262 362.948H690.143L680.57 339.76H677.754L668.214 362.948H671.096ZM679.179 343.304L683.485 353.805H674.872L679.179 343.304ZM709.084 362.948V360.397H696.662V339.76H693.879V362.948H709.084ZM728.429 362.948V360.397H716.007V339.76H713.224V362.948H728.429ZM13.0915 396.312C20.1142 396.312 24.3212 391.244 24.3212 384.287C24.3212 377.099 19.783 372.395 13.0915 372.395C6.13505 372.395 1.92804 377.397 1.92804 384.287C1.92804 391.608 6.46631 396.312 13.0915 396.312ZM13.0915 393.761C7.99011 393.761 4.77688 390.084 4.77688 384.287C4.77688 378.557 7.99011 374.946 13.0915 374.946C18.226 374.946 21.4724 378.557 21.4724 384.287C21.4724 390.084 18.2592 393.761 13.0915 393.761ZM38.0916 395.948L46.8368 372.76H43.8886L36.6009 392.105L29.0813 372.76H26.0999L35.1102 395.948H38.0916ZM66.448 395.948V393.397H53.065V385.116H64.8248V382.631H53.065V375.31H66.1498V372.76H50.3156V395.948H66.448ZM73.6725 395.948V386.374H81.689C82.7822 386.374 83.5772 386.904 83.9416 387.898L86.923 395.948H89.9043L86.6911 387.401C86.2604 386.242 85.3992 385.447 84.1735 385.116C86.9892 384.221 88.8443 381.902 88.8443 379.153C88.8443 375.376 85.8298 372.76 81.4572 372.76H70.89V395.948H73.6725ZM73.6725 375.31H81.5897C84.1072 375.31 86.0286 376.702 86.0286 379.418C86.0286 381.902 84.4716 383.89 81.5897 383.89H73.6725V375.31ZM110.409 395.948V375.31L118.426 375.31V372.76L99.61 372.76V375.31H107.626V395.948H110.409ZM125.173 395.948V385.281H139.417V395.948H142.2V372.76H139.417V382.73H125.173V372.76H122.391V395.948H125.173ZM163.95 395.948V393.397H150.567V385.116H162.327V382.631H150.567V375.31H163.652V372.76H147.817V395.948H163.95ZM183.352 395.948L188.652 377.066L194.018 395.948H197.132L203.691 372.76H200.809L195.443 391.84L190.01 372.76H187.294L181.927 391.774L176.561 372.76H173.679L180.238 395.948H183.352ZM216.959 396.312C223.982 396.312 228.189 391.244 228.189 384.287C228.189 377.099 223.65 372.395 216.959 372.395C210.002 372.395 205.795 377.397 205.795 384.287C205.795 391.608 210.334 396.312 216.959 396.312ZM216.959 393.761C211.857 393.761 208.644 390.084 208.644 384.287C208.644 378.557 211.857 374.946 216.959 374.946C222.093 374.946 225.34 378.557 225.34 384.287C225.34 390.084 222.127 393.761 216.959 393.761ZM235.55 395.948V386.374H243.567C244.66 386.374 245.455 386.904 245.819 387.898L248.801 395.948H251.782L248.569 387.401C248.138 386.242 247.277 385.447 246.051 385.116C248.867 384.221 250.722 381.902 250.722 379.153C250.722 375.376 247.707 372.76 243.335 372.76H232.768V395.948H235.55ZM235.55 375.31H243.467C245.985 375.31 247.906 376.702 247.906 379.418C247.906 381.902 246.349 383.89 243.467 383.89H235.55V375.31ZM270.908 395.948V393.397H258.486V372.76H255.703V395.948H270.908ZM283.231 395.948C289.889 395.948 294.527 391.144 294.527 384.221C294.527 377.463 289.889 372.76 283.231 372.76H275.048V395.948H283.231ZM277.831 375.31H283.396C288.2 375.31 291.578 379.219 291.578 384.221C291.578 389.621 288.2 393.397 283.396 393.397H277.831V375.31ZM298.944 396.279C300.137 396.279 301.031 395.385 301.031 394.192C301.031 393.033 300.137 392.138 298.944 392.138C297.752 392.138 296.857 393.033 296.857 394.192C296.857 395.385 297.752 396.279 298.944 396.279Z" fill="white"/>
</svg>
